<?xml version="1.0" encoding="UTF-8"?>
<svg width="49px" height="26px" viewBox="0 0 49 26" version="1.1" xmlns="http://www.w3.org/2000/svg" xmlns:xlink="http://www.w3.org/1999/xlink">
    <!-- Generator: Sketch 64 (93537) - https://sketch.com -->
    <title>Group 20</title>
    <desc>Created with Sketch.</desc>
    <g id="Hi-fidelity-Design" stroke="none" stroke-width="1" fill="none" fill-rule="evenodd">
        <g id="cart-8a-Payment-desktop-01" transform="translate(-524.000000, -737.000000)">
            <g id="Group-8" transform="translate(183.000000, 705.000000)">
                <g id="Group-22" transform="translate(233.000000, 32.000000)">
                    <g id="Group-20" transform="translate(108.580226, 0.000000)">
                        <path d="M4.20377377,0.2 L43.7037738,0.2 C45.9037738,0.2 47.7037738,2 47.7037738,4.2 L47.7037738,21.7 C47.7037738,23.9 45.9037738,25.7 43.7037738,25.7 L4.20377377,25.7 C2.00377377,25.7 0.203773773,23.9 0.203773773,21.7 L0.203773773,4.2 C0.203773773,2 2.00377377,0.2 4.20377377,0.2 Z" id="Path" fill="#006FCF"></path>
                        <path d="M41.6037738,11.7 L45.1037738,11.7 L45.1037738,3.5 L41.3037738,3.5 L41.3037738,4.6 L40.6037738,3.5 L37.3037738,3.5 L37.3037738,5 L36.7037738,3.5 L30.4037738,3.5 C30.2037738,3.5 30.0037738,3.6 29.8037738,3.6 C29.6037738,3.6 29.5037738,3.7 29.3037738,3.8 C29.1037738,3.9 29.0037738,3.9 28.8037738,4 L28.8037738,3.5 L11.2037738,3.5 L10.7037738,4.9 L10.1037738,3.5 L6.00377377,3.5 L6.00377377,5 L5.30377377,3.5 L2.00377377,3.5 L0.503773773,7 L0.503773773,11.7 L2.90377377,11.7 L3.40377377,10.6 L4.20377377,10.6 L4.60377377,11.7 L22.9037738,11.7 L22.9037738,10.7 L23.6037738,11.7 L28.7037738,11.7 L28.7037738,11.1 C28.8037738,11.2 29.0037738,11.2 29.1037738,11.3 C29.2037738,11.4 29.4037738,11.4 29.5037738,11.5 C29.7037738,11.6 29.9037738,11.6 30.1037738,11.6 L33.8037738,11.6 L34.4037738,10.5 L35.2037738,10.5 L35.6037738,11.6 L40.7037738,11.6 L40.7037738,10.6 L41.6037738,11.7 L41.6037738,11.7 Z M47.3037738,22.2 L47.3037738,14.5 L18.7037738,14.5 L18.0037738,15.5 L17.3037738,14.5 L8.90377377,14.5 L8.90377377,22.7 L17.2037738,22.7 L17.9037738,21.7 L18.6037738,22.7 L23.8037738,22.7 L23.8037738,20.9 L23.6037738,20.9 C24.3037738,20.9 25.0037738,20.8 25.5037738,20.6 L25.5037738,22.8 L29.2037738,22.8 L29.2037738,21.8 L29.9037738,22.8 L45.4037738,22.8 C46.1037738,22.6 46.8037738,22.5 47.3037738,22.2 L47.3037738,22.2 Z" id="Shape" fill="#FFFFFF" fill-rule="nonzero"></path>
                        <path d="M45.5037738,20.2 L42.7037738,20.2 L42.7037738,21.3 L45.4037738,21.3 C46.5037738,21.3 47.3037738,20.6 47.3037738,19.5 C47.3037738,18.4 46.6037738,18 45.6037738,18 L44.4037738,18 C44.1037738,18 43.9037738,17.8 43.9037738,17.5 C43.9037738,17.2 44.1037738,17 44.4037738,17 L46.8037738,17 L47.3037738,15.9 L44.5037738,15.9 C43.4037738,15.9 42.6037738,16.6 42.6037738,17.6 C42.6037738,18.6 43.2037738,19.2 44.3037738,19.2 L45.5037738,19.2 C45.8037738,19.2 46.0037738,19.4 46.0037738,19.7 C46.1037738,20 45.9037738,20.2 45.5037738,20.2 L45.5037738,20.2 Z M40.4037738,20.2 L37.6037738,20.2 L37.6037738,21.3 L40.3037738,21.3 C41.4037738,21.3 42.2037738,20.6 42.2037738,19.5 C42.2037738,18.4 41.6037738,18 40.5037738,18 L39.3037738,18 C39.0037738,18 38.8037738,17.8 38.8037738,17.5 C38.8037738,17.2 39.0037738,17 39.3037738,17 L41.7037738,17 L42.2037738,15.9 L39.4037738,15.9 C38.3037738,15.9 37.5037738,16.6 37.5037738,17.6 C37.5037738,18.6 38.1037738,19.2 39.2037738,19.2 L40.4037738,19.2 C40.7037738,19.2 40.9037738,19.4 40.9037738,19.7 C41.0037738,20 40.7037738,20.2 40.4037738,20.2 L40.4037738,20.2 Z M36.8037738,16.8 L36.8037738,15.7 L32.4037738,15.7 L32.4037738,21.2 L36.8037738,21.2 L36.8037738,20.1 L33.7037738,20.1 L33.7037738,19 L36.7037738,19 L36.7037738,17.9 L33.7037738,17.9 L33.7037738,16.9 L36.8037738,16.9 L36.8037738,16.8 L36.8037738,16.8 Z M29.7037738,16.8 C30.2037738,16.8 30.4037738,17.1 30.4037738,17.4 C30.4037738,17.7 30.2037738,18 29.7037738,18 L28.1037738,18 L28.1037738,16.6 L29.7037738,16.8 L29.7037738,16.8 Z M28.1037738,19.2 L28.7037738,19.2 L30.4037738,21.2 L32.0037738,21.2 L30.1037738,19.1 C31.0037738,18.9 31.6037738,18.3 31.6037738,17.4 C31.6037738,16.4 30.9037738,15.6 29.7037738,15.6 L26.8037738,15.6 L26.8037738,21.1 L28.0037738,21.1 L28.1037738,19.2 Z M24.8037738,17.6 C24.8037738,18 24.6037738,18.3 24.1037738,18.3 L22.4037738,18.3 L22.4037738,16.8 L24.0037738,16.8 C24.5037738,16.8 24.8037738,17.2 24.8037738,17.6 L24.8037738,17.6 Z M21.2037738,15.7 L21.2037738,21.2 L22.4037738,21.2 L22.4037738,19.3 L24.1037738,19.3 C25.2037738,19.3 26.1037738,18.6 26.1037738,17.4 C26.1037738,16.4 25.4037738,15.5 24.2037738,15.5 L21.2037738,15.7 L21.2037738,15.7 Z M19.3037738,21.2 L20.9037738,21.2 L18.7037738,18.4 L20.9037738,15.7 L19.3037738,15.7 L17.9037738,17.5 L16.5037738,15.7 L14.9037738,15.7 L17.1037738,18.4 L14.9037738,21.1 L16.5037738,21.1 L17.9037738,19.3 L19.3037738,21.2 L19.3037738,21.2 Z M14.6037738,16.8 L14.6037738,15.7 L10.2037738,15.7 L10.2037738,21.2 L14.6037738,21.2 L14.6037738,20.1 L11.5037738,20.1 L11.5037738,19 L14.5037738,19 L14.5037738,17.9 L11.5037738,17.9 L11.5037738,16.9 L14.6037738,16.9 L14.6037738,16.8 L14.6037738,16.8 Z M39.9037738,7.1 L42.1037738,10.4 L43.7037738,10.4 L43.7037738,4.9 L42.4037738,4.9 L42.4037738,8.5 L42.1037738,8 L40.1037738,4.9 L38.4037738,4.9 L38.4037738,10.4 L39.6037738,10.4 L39.6037738,6.7 L39.9037738,7.1 L39.9037738,7.1 Z M34.5037738,7 L34.9037738,5.9 L35.3037738,7 L35.8037738,8.2 L33.9037738,8.2 L34.5037738,7 Z M36.7037738,10.4 L38.1037738,10.4 L35.7037738,4.9 L34.0037738,4.9 L31.6037738,10.4 L33.0037738,10.4 L33.4037738,9.3 L36.1037738,9.3 L36.7037738,10.4 Z M30.8037738,10.4 L31.4037738,9.3 L31.1037738,9.3 C30.2037738,9.3 29.6037738,8.7 29.6037738,7.7 L29.6037738,7.6 C29.6037738,6.7 30.1037738,6 31.1037738,6 L32.4037738,6 L32.4037738,4.9 L30.9037738,4.9 C29.2037738,4.9 28.3037738,6 28.3037738,7.6 L28.3037738,7.7 C28.3037738,9.4 29.3037738,10.4 30.8037738,10.4 Z M26.2037738,10.4 L27.4037738,10.4 L27.4037738,5 L26.2037738,5 L26.2037738,10.4 Z M23.4037738,6 C23.9037738,6 24.1037738,6.3 24.1037738,6.6 C24.1037738,6.9 23.9037738,7.2 23.4037738,7.2 L21.8037738,7.2 L21.8037738,5.9 L23.4037738,6 L23.4037738,6 Z M21.9037738,8.4 L22.5037738,8.4 L24.2037738,10.4 L25.8037738,10.4 L23.9037738,8.3 C24.8037738,8.1 25.4037738,7.5 25.4037738,6.6 C25.4037738,5.6 24.7037738,4.8 23.5037738,4.8 L20.6037738,4.8 L20.6037738,10.3 L21.8037738,10.3 L21.9037738,8.4 Z M19.6037738,6 L19.6037738,4.9 L15.2037738,4.9 L15.2037738,10.4 L19.6037738,10.4 L19.6037738,9.3 L16.5037738,9.3 L16.5037738,8.1 L19.5037738,8.1 L19.5037738,7 L16.5037738,7 L16.5037738,6 L19.6037738,6 L19.6037738,6 L19.6037738,6 Z M10.1037738,10.4 L11.2037738,10.4 L12.8037738,5.9 L12.8037738,10.4 L14.0037738,10.4 L14.0037738,4.9 L12.0037738,4.9 L10.8037738,8.6 L9.50377377,4.9 L7.40377377,4.9 L7.40377377,10.4 L8.60377377,10.4 L8.60377377,5.9 L10.1037738,10.4 Z M3.40377377,7 L3.80377377,5.9 L4.20377377,7 L4.70377377,8.2 L2.80377377,8.2 L3.40377377,7 L3.40377377,7 Z M5.60377377,10.4 L7.00377377,10.4 L4.50377377,4.9 L2.90377377,4.9 L0.503773773,10.4 L1.90377377,10.4 L2.40377377,9.3 L5.10377377,9.3 L5.60377377,10.4 Z" id="Shape" fill="#006FCF" fill-rule="nonzero"></path>
                        <path d="M43.7037738,26 L4.20377377,26 C1.90377377,26 0.00377377341,24.1 0.00377377341,21.8 L0.00377377341,4.2 C-0.0962262266,1.9 1.80377377,0 4.20377377,0 L43.7037738,0 C46.0037738,0 47.9037738,1.9 47.9037738,4.2 L47.9037738,21.7 C47.9037738,24.1 46.0037738,26 43.7037738,26 Z M4.20377377,0.5 C2.10377377,0.5 0.403773773,2.2 0.403773773,4.2 L0.403773773,21.7 C0.403773773,23.8 2.10377377,25.5 4.20377377,25.5 L43.7037738,25.5 C45.8037738,25.5 47.5037738,23.8 47.5037738,21.7 L47.5037738,4.2 C47.5037738,2.1 45.8037738,0.4 43.7037738,0.4 L4.20377377,0.4 L4.20377377,0.5 Z" id="Shape" fill="#979797" fill-rule="nonzero"></path>
                    </g>
                </g>
            </g>
        </g>
    </g>
</svg>