<svg width="32" height="32" viewBox="0 0 32 32" fill="none" xmlns="http://www.w3.org/2000/svg">
<rect width="32" height="32" fill="white"/>
<path fill-rule="evenodd" clip-rule="evenodd" d="M18.9405 26.1334H25.2715V10.0095L21.4537 6.27696H10.8305V16.9918L14.6754 21.4847L18.9405 26.1334ZM27.0767 27.9385H18.1472L13.3248 22.6824L9.02539 17.6592V4.47183H22.1897L27.0767 9.24956V27.9385Z" fill="#99AF21"/>
<path fill-rule="evenodd" clip-rule="evenodd" d="M22.0483 9.50025H24.7686L22.0483 6.77993V9.50025ZM27.0769 11.3054H20.2432V4.47162H22.2929L27.0769 9.25566V11.3054Z" fill="#99AF21"/>
<path fill-rule="evenodd" clip-rule="evenodd" d="M13.4092 15.5602H23.0797V13.7551H13.4092V15.5602Z" fill="#99AF21"/>
<path fill-rule="evenodd" clip-rule="evenodd" d="M13.4092 18.8483H23.0797V17.0432H13.4092V18.8483Z" fill="#99AF21"/>
<path fill-rule="evenodd" clip-rule="evenodd" d="M14.4995 20.2023L16.1029 22.0074H23.0797V20.2023H14.4995Z" fill="#99AF21"/>
<path fill-rule="evenodd" clip-rule="evenodd" d="M7.59042 21.2433L12.4313 26.6944L12.7165 26.4412L7.87608 20.9897L7.59042 21.2433ZM12.2806 29.2428L5.04248 21.0926L8.02681 18.4418L15.2649 26.5919L12.2806 29.2428Z" fill="#99AF21"/>
<path fill-rule="evenodd" clip-rule="evenodd" d="M4.6735 20.6779L2.34534 18.0559L5.32967 15.4042L7.65783 18.0261L4.6735 20.6779Z" fill="#99AF21"/>
<path fill-rule="evenodd" clip-rule="evenodd" d="M13.076 29.5113L15.4376 27.4138L15.7797 30.3598L13.076 29.5113Z" fill="#99AF21"/>
</svg>
