<?xml version="1.0" encoding="utf-8"?>
<!-- Generator: Adobe Illustrator 24.1.0, SVG Export Plug-In . SVG Version: 6.00 Build 0)  -->
<svg version="1.1" id="Layer_1" xmlns="http://www.w3.org/2000/svg" xmlns:xlink="http://www.w3.org/1999/xlink" x="0px" y="0px"
	 viewBox="0 0 16 16" style="enable-background:new 0 0 16 16;" xml:space="preserve">
<style type="text/css">
	.st0{fill:none;}
	.st1{fill-rule:evenodd;clip-rule:evenodd;fill:#3DA3F8;}
</style>
<desc>Created with Sketch.</desc>
<g id="Hi-fidelity-Design">
	<g id="cart-5a-checkout-desktop-01" transform="translate(-446.000000, -644.000000)">
		<g id="Group-11" transform="translate(134.000000, 257.000000)">
			<g id="Group-10" transform="translate(24.000000, 232.000000)">
				<g id="Group-8" transform="translate(20.000000, 24.000000)">
					<g id="Group-Copy-5" transform="translate(250.000000, 95.000000)">
						<g id="Group-3" transform="translate(16.000000, 35.000000)">
							<g id="Action_x2F_ic_x5F_date_x5F_range">
								<rect id="Bounds" x="2" y="1" class="st0" width="16" height="16"/>
								<path id="Color-Fill" class="st1" d="M8,8.3H6.7v1.3H8V8.3z M10.7,8.3H9.3v1.3h1.3V8.3z M13.3,8.3H12v1.3h1.3V8.3z
									 M14.7,3.7H14V2.3h-1.3v1.3H7.3V2.3H6v1.3H5.3C4.6,3.7,4,4.3,4,5l0,9.3c0,0.7,0.6,1.3,1.3,1.3h9.3c0.7,0,1.3-0.6,1.3-1.3V5
									C16,4.3,15.4,3.7,14.7,3.7z M14.7,14.3H5.3V7h9.3V14.3z"/>
							</g>
						</g>
					</g>
				</g>
			</g>
		</g>
	</g>
</g>
</svg>
