<?xml version="1.0" encoding="utf-8"?>
<!-- Generator: Adobe Illustrator 24.1.0, SVG Export Plug-In . SVG Version: 6.00 Build 0)  -->
<svg version="1.1" id="Layer_1" xmlns="http://www.w3.org/2000/svg" xmlns:xlink="http://www.w3.org/1999/xlink" x="0px" y="0px"
	 viewBox="0 0 24 24" style="enable-background:new 0 0 24 24;" xml:space="preserve">
<style type="text/css">
	.st0{fill:none;}
	.st1{fill-rule:evenodd;clip-rule:evenodd;fill:#009FDB;}
</style>
<desc>Created with Sketch.</desc>
<g id="Hi-fidelity-Design-_x28_No-notes_x29_">
	<g id="Action_x2F_ic_x5F_shopping_x5F_cart" transform="translate(-1.000000, -2.000000)">
		<rect id="Bounds" x="1" y="2" class="st0" width="24" height="24"/>
		<path id="Color-Fill" class="st1" d="M8,20c-1.1,0-2,0.9-2,2s0.9,2,2,2s2-0.9,2-2S9.1,20,8,20z M2,4v2h2l3.6,7.6L6.2,16
			C6.1,16.3,6,16.6,6,17c0,1.1,0.9,2,2,2h12v-2H8.4c-0.1,0-0.2-0.1-0.2-0.2l0-0.1L9.1,15h7.4c0.8,0,1.4-0.4,1.8-1l3.6-6.5
			C22,7.3,22,7.2,22,7c0-0.6-0.5-1-1-1H6.2L5.3,4H2z M18,20c-1.1,0-2,0.9-2,2s0.9,2,2,2s2-0.9,2-2S19.1,20,18,20z"/>
	</g>
</g>
</svg>
