<?xml version="1.0" encoding="utf-8"?>
<!-- Generator: Adobe Illustrator 24.1.0, SVG Export Plug-In . SVG Version: 6.00 Build 0)  -->
<svg version="1.1" id="Layer_1" xmlns="http://www.w3.org/2000/svg" xmlns:xlink="http://www.w3.org/1999/xlink" x="0px" y="0px"
	 viewBox="0 0 40 40" style="enable-background:new 0 0 40 40;" xml:space="preserve">
<style type="text/css">
	.st0{fill:#1990FF;}
	.st1{fill-rule:evenodd;clip-rule:evenodd;fill:#1990FF;}
	.st2{fill:none;}
</style>
<desc>Created with Sketch.</desc>
<g id="Hi-fidelity-Design">
	<g id="Group-31" transform="translate(1.000000, 1.000000)">
		<g id="Oval-Copy">
			<path class="st0" d="M19,39C8,39-1,30-1,19S8-1,19-1s20,9,20,20S30,39,19,39z M19,0C8.5,0,0,8.5,0,19c0,10.5,8.5,19,19,19
				c10.5,0,19-8.5,19-19C38,8.5,29.5,0,19,0z"/>
		</g>
		<g id="Navigation_x2F_ic_x5F_check" transform="translate(4.000000, 4.000000)">
			<g id="Color-Fill">
				<polygon class="st1" points="11.1,20.4 5.7,15 3.8,16.8 11.1,24.1 26.7,8.5 24.9,6.7 				"/>
			</g>
		</g>
	</g>
</g>
<rect x="0" class="st2" width="40" height="40"/>
</svg>
