<?xml version="1.0" encoding="UTF-8"?>
<svg width="49px" height="26px" viewBox="0 0 49 26" version="1.1" xmlns="http://www.w3.org/2000/svg" xmlns:xlink="http://www.w3.org/1999/xlink">
    <!-- Generator: Sketch 64 (93537) - https://sketch.com -->
    <title>Group 21</title>
    <desc>Created with Sketch.</desc>
    <defs>
        <linearGradient x1="75.7487143%" y1="90.1562514%" x2="40.7460431%" y2="35.3196473%" id="linearGradient-1">
            <stop stop-color="#F89F20" offset="0%"></stop>
            <stop stop-color="#F79A20" offset="25.02%"></stop>
            <stop stop-color="#F68D20" offset="53.31%"></stop>
            <stop stop-color="#F58720" offset="61.96%"></stop>
            <stop stop-color="#F48120" offset="72.32%"></stop>
            <stop stop-color="#F37521" offset="100%"></stop>
        </linearGradient>
        <linearGradient x1="70.2385722%" y1="89.4281423%" x2="19.0835657%" y2="-10.6226053%" id="linearGradient-2">
            <stop stop-color="#F58720" stop-opacity="0" offset="0%"></stop>
            <stop stop-color="#E16F27" stop-opacity="0.2704" offset="35.87%"></stop>
            <stop stop-color="#D4602C" stop-opacity="0.5299" offset="70.3%"></stop>
            <stop stop-color="#D05B2E" stop-opacity="0.74" offset="98.16%"></stop>
        </linearGradient>
    </defs>
    <g id="Hi-fidelity-Design" stroke="none" stroke-width="1" fill="none" fill-rule="evenodd">
        <g id="cart-8a-Payment-desktop-01" transform="translate(-578.000000, -737.000000)">
            <g id="Group-8" transform="translate(183.000000, 705.000000)">
                <g id="Group-22" transform="translate(233.000000, 32.000000)">
                    <g id="Group-21" transform="translate(162.796226, 0.100000)">
                        <path d="M4.30377377,0.5 L43.3037738,0.5 C45.5037738,0.5 47.3037738,2.3 47.3037738,4.5 L47.3037738,21.8 C47.3037738,24 45.5037738,25.8 43.3037738,25.8 L4.30377377,25.8 C2.10377377,25.8 0.303773773,24 0.303773773,21.8 L0.303773773,4.4 C0.303773773,2.3 2.10377377,0.5 4.30377377,0.5 Z" id="Path" fill="#FFFFFF"></path>
                        <path d="M5.40377377,7.5 L3.50377377,7.5 L3.50377377,14.2 L5.40377377,14.2 C6.40377377,14.2 7.10377377,14 7.80377377,13.4 C8.50377377,12.8 9.00377377,11.9 9.00377377,10.9 C9.00377377,8.9 7.50377377,7.5 5.40377377,7.5 Z M6.90377377,12.6 C6.50377377,13 6.00377377,13.1 5.10377377,13.1 L4.80377377,13.1 L4.80377377,8.7 L5.20377377,8.7 C6.00377377,8.7 6.60377377,8.9 7.00377377,9.2 C7.50377377,9.6 7.70377377,10.2 7.70377377,10.9 C7.60377377,11.5 7.40377377,12.2 6.90377377,12.6 Z" id="Shape" fill="#231F20" fill-rule="nonzero"></path>
                        <rect id="Rectangle" fill="#231F20" fill-rule="nonzero" x="9.60377377" y="7.5" width="1.3" height="6.7"></rect>
                        <path d="M14.1037738,10.1 C13.3037738,9.8 13.1037738,9.6 13.1037738,9.3 C13.1037738,8.9 13.5037738,8.6 14.1037738,8.6 C14.5037738,8.6 14.8037738,8.8 15.2037738,9.1 L15.9037738,8.2 C15.3037738,7.7 14.7037738,7.5 13.9037738,7.5 C12.7037738,7.5 11.8037738,8.3 11.8037738,9.4 C11.8037738,10.3 12.2037738,10.8 13.4037738,11.2 C13.9037738,11.4 14.2037738,11.5 14.3037738,11.6 C14.6037738,11.8 14.7037738,12 14.7037738,12.3 C14.7037738,12.8 14.3037738,13.2 13.7037738,13.2 C13.1037738,13.2 12.6037738,12.9 12.3037738,12.3 L11.5037738,13.1 C12.1037738,14 12.8037738,14.4 13.8037738,14.4 C15.2037738,14.4 16.1037738,13.5 16.1037738,12.2 C16.0037738,11.1 15.6037738,10.7 14.1037738,10.1 Z" id="Path" fill="#231F20" fill-rule="nonzero"></path>
                        <path d="M16.4037738,10.9 C16.4037738,12.9 17.9037738,14.4 19.9037738,14.4 C20.5037738,14.4 20.9037738,14.3 21.5037738,14 L21.5037738,12.5 C21.0037738,13 20.5037738,13.2 19.9037738,13.2 C18.6037738,13.2 17.7037738,12.2 17.7037738,10.9 C17.7037738,9.6 18.7037738,8.6 19.9037738,8.6 C20.5037738,8.6 21.0037738,8.8 21.5037738,9.4 L21.5037738,7.8 C20.9037738,7.5 20.5037738,7.4 19.9037738,7.4 C18.0037738,7.4 16.4037738,9 16.4037738,10.9 Z" id="Path" fill="#231F20" fill-rule="nonzero"></path>
                        <polygon id="Path" fill="#231F20" fill-rule="nonzero" points="31.9037738 12 30.1037738 7.5 28.7037738 7.5 31.6037738 14.4 32.3037738 14.4 35.2037738 7.5 33.7037738 7.5"></polygon>
                        <polygon id="Path" fill="#231F20" fill-rule="nonzero" points="35.7037738 14.2 39.4037738 14.2 39.4037738 13.1 37.1037738 13.1 37.1037738 11.3 39.4037738 11.3 39.4037738 10.2 37.1037738 10.2 37.1037738 8.7 39.4037738 8.7 39.4037738 7.5 35.7037738 7.5"></polygon>
                        <path d="M44.6037738,9.5 C44.6037738,8.2 43.7037738,7.5 42.2037738,7.5 L40.3037738,7.5 L40.3037738,14.2 L41.6037738,14.2 L41.6037738,11.5 L41.8037738,11.5 L43.6037738,14.2 L45.2037738,14.2 L43.1037738,11.4 C44.1037738,11.2 44.6037738,10.5 44.6037738,9.5 Z M42.0037738,10.6 L41.6037738,10.6 L41.6037738,8.6 L42.0037738,8.6 C42.8037738,8.6 43.3037738,8.9 43.3037738,9.6 C43.3037738,10.3 42.8037738,10.6 42.0037738,10.6 Z" id="Shape" fill="#231F20" fill-rule="nonzero"></path>
                        <path d="M45.4037738,7.8 C45.4037738,7.7 45.3037738,7.6 45.2037738,7.6 L45.0037738,7.6 L45.0037738,8.2 L45.2037738,8.2 L45.2037738,8 L45.4037738,8.2 L45.6037738,8.2 L45.4037738,8 C45.4037738,7.9 45.4037738,7.9 45.4037738,7.8 Z M45.2037738,7.9 L45.2037738,7.9 L45.2037738,7.7 L45.2037738,7.7 C45.3037738,7.7 45.3037738,7.7 45.2037738,7.9 C45.3037738,7.9 45.3037738,7.9 45.2037738,7.9 Z" id="Shape" fill="#231F20" fill-rule="nonzero"></path>
                        <path d="M45.3037738,7.4 C45.0037738,7.4 44.8037738,7.6 44.8037738,7.9 C44.8037738,8.2 45.0037738,8.4 45.3037738,8.4 C45.6037738,8.4 45.8037738,8.2 45.8037738,7.9 C45.8037738,7.6 45.5037738,7.4 45.3037738,7.4 Z M45.3037738,8.3 C45.1037738,8.3 44.9037738,8.1 44.9037738,7.9 C44.9037738,7.7 45.1037738,7.5 45.3037738,7.5 C45.5037738,7.5 45.7037738,7.7 45.7037738,7.9 C45.7037738,8.1 45.5037738,8.3 45.3037738,8.3 Z" id="Shape" fill="#231F20" fill-rule="nonzero"></path>
                        <path d="M43.3037738,25.8 C45.5037738,25.8 47.3037738,24 47.3037738,21.8 L47.3037738,14.9 C47.3037738,14.9 38.1037738,21.4 21.1037738,25.7 L43.3037738,25.7 L43.3037738,25.8 Z" id="Path" fill="#F48120" fill-rule="nonzero"></path>
                        <path d="M43.2037738,25.8 L4.20377377,25.8 C1.90377377,25.8 0.00377377341,23.9 0.00377377341,21.6 L0.00377377341,4.2 C-0.0962262266,1.9 1.80377377,-2.30926389e-14 4.20377377,-2.30926389e-14 L43.2037738,-2.30926389e-14 C45.5037738,-2.30926389e-14 47.4037738,1.9 47.4037738,4.2 L47.4037738,21.5 C47.5037738,23.9 45.6037738,25.8 43.2037738,25.8 Z M4.20377377,0.5 C2.20377377,0.5 0.503773773,2.2 0.503773773,4.2 L0.503773773,21.5 C0.503773773,23.5 2.20377377,25.2 4.20377377,25.2 L43.2037738,25.2 C45.2037738,25.2 46.9037738,23.5 46.9037738,21.5 L46.9037738,4.2 C46.9037738,2.2 45.2037738,0.5 43.2037738,0.5 C43.2037738,0.5 4.20377377,0.5 4.20377377,0.5 Z" id="Shape" fill="#979797" fill-rule="nonzero"></path>
                        <path d="M29.0037738,10.9 C29.0037738,12.9 27.4037738,14.4 25.5037738,14.4 C23.5037738,14.4 22.0037738,12.8 22.0037738,10.9 C22.0037738,9 23.6037738,7.4 25.5037738,7.4 C27.4037738,7.3 29.0037738,8.9 29.0037738,10.9 Z" id="Path" fill="url(#linearGradient-1)" fill-rule="nonzero"></path>
                        <path d="M29.0037738,10.9 C29.0037738,12.9 27.4037738,14.4 25.5037738,14.4 C23.5037738,14.4 22.0037738,12.8 22.0037738,10.9 C22.0037738,9 23.6037738,7.4 25.5037738,7.4 C27.4037738,7.3 29.0037738,8.9 29.0037738,10.9 Z" id="Path" fill="url(#linearGradient-2)" fill-rule="nonzero" opacity="0.65"></path>
                    </g>
                </g>
            </g>
        </g>
    </g>
</svg>