<svg width="32" height="32" viewBox="0 0 32 32" fill="none" xmlns="http://www.w3.org/2000/svg">
<rect width="32" height="32" fill="white"/>
<mask id="mask0" mask-type="alpha" maskUnits="userSpaceOnUse" x="2" y="2" width="28" height="28">
<path d="M2.46155 2.46155H29.5385V29.5384H2.46155V2.46155Z" fill="white"/>
</mask>
<g mask="url(#mask0)">
<path fill-rule="evenodd" clip-rule="evenodd" d="M16 26.0543C10.4561 26.0543 5.94561 21.5438 5.94561 15.9999C5.94561 10.456 10.4561 5.94552 16 5.94552C21.5439 5.94552 26.0544 10.456 26.0544 15.9999C26.0544 21.5438 21.5439 26.0543 16 26.0543ZM29.5385 18.4994V13.5005L27.6741 13.1278C27.3797 11.9315 26.9081 10.8041 26.2848 9.77764L27.3403 8.19438L23.8055 4.65961L22.2223 5.71512C21.1963 5.09186 20.0689 4.62023 18.8721 4.32583L18.4995 2.46146H13.5006L13.1279 4.32583C11.9803 4.60792 10.8972 5.05592 9.90524 5.64176L8.33232 4.56558L4.75472 8.05703L5.79299 9.65555C5.13232 10.715 4.63213 11.8832 4.32592 13.1278L2.46155 13.5005V18.4994L4.32592 18.872C4.62032 20.0683 5.09195 21.1957 5.71521 22.2222L4.6597 23.8059L8.19447 27.3402L9.77773 26.2847C10.8037 26.908 11.9311 27.3796 13.1279 27.6745L13.5006 29.5384H18.4995L18.8721 27.6745C20.0197 27.3919 21.1028 26.9444 22.0953 26.3581L23.6677 27.4343L27.2453 23.9428L26.207 22.3443C26.8677 21.2848 27.3679 20.1166 27.6741 18.8725L29.5385 18.4994ZM18.6659 12.7689L20.2265 13.9696L15.2945 20.381L11.9237 17.5719L13.184 16.059L14.9824 17.5576L18.6659 12.7689ZM16 22.1538C12.6065 22.1538 9.84616 19.3934 9.84616 15.9999C9.84616 12.6069 12.6065 9.84607 16 9.84607C19.3935 9.84607 22.1539 12.6069 22.1539 15.9999C22.1539 19.3934 19.3935 22.1538 16 22.1538ZM16 7.87684C11.521 7.87684 7.87693 11.5209 7.87693 15.9999C7.87693 20.4789 11.521 24.123 16 24.123C20.479 24.123 24.1231 20.4789 24.1231 15.9999C24.1231 11.5209 20.479 7.87684 16 7.87684Z" fill="#99AF21"/>
</g>
</svg>
