<?xml version="1.0" encoding="utf-8"?>
<!-- Generator: Adobe Illustrator 24.1.0, SVG Export Plug-In . SVG Version: 6.00 Build 0)  -->
<svg version="1.1" id="Layer_1" xmlns="http://www.w3.org/2000/svg" xmlns:xlink="http://www.w3.org/1999/xlink" width="75px" height="75px" x="0px" y="0px"
	 viewBox="0 0 75 75" style="enable-background:new 0 0 75 75;" xml:space="preserve">
<style type="text/css">
	.st0{fill:#0057B8;opacity:0; animation-duration: 1s;
      animation-iteration-count: infinite;}
  svg {width:70px;}

 @keyframes loading-01 {
      0%{opacity:1;}
       12.5% {opacity:0.5;}
       25% {opacity:0.5;}
       37.5% {opacity:0.25;}
       50% {opacity:0.25;}
     57.5% {opacity:0}
      75%{opacity:0;}
   88%{opacity:0;}
   100%{opacity:1;}
     }

   @keyframes loading-02 {
        0%{opacity:0;}
       12.5% {opacity:1;}
       25% {opacity:0.5;}
       37.5% {opacity:0.5;}
       50% {opacity:0.25;}
     57.5% {opacity:0.25}
      75%{opacity:0;}
        88%{opacity:0;}
   100%{opacity:0;}
     }

     @keyframes loading-03 {
         0%{opacity:0;}
       12.5% {opacity:0;}
       25% {opacity:1;}
       37.5% {opacity:0.5;}
       50% {opacity:0.5;}
     57.5% {opacity:0.25}
      75%{opacity:0.25;}
          88%{opacity:0;}
   100%{opacity:0;}
     }

      @keyframes loading-04 {
        0%{opacity:0;}
       12.5% {opacity:0;}
       25% {opacity:0;}
       37.5% {opacity:1;}
       50% {opacity:0.5;}
     57.5% {opacity:0.5}
      75%{opacity:0.25;}
    88%{opacity:0.25;}
   100%{opacity:0;}
     }

      @keyframes loading-05 {
        0%{opacity:0.25;}
       12.5% {opacity:0;}
       25% {opacity:0;}
       37.5% {opacity:0;}
       50% {opacity:1;}
     57.5% {opacity:0.5}
      75%{opacity:0.5;}
       88%{opacity:0.25;}
   100%{opacity:0.25;}
     }

        @keyframes loading-06 {
        0%{opacity:0.25;}
       12.5% {opacity:0.25;}
       25% {opacity:0;}
       37.5% {opacity:0;}
       50% {opacity:0;}
     57.5% {opacity:1}
      75%{opacity:0.5;}
       88%{opacity:0.5;}
   100%{opacity:0.25;}
     }

         @keyframes loading-07 {
       0%{opacity:0.25;}
       12.5% {opacity:0.25;}
       25% {opacity:0.25;}
       37.5% {opacity:0;}
       50% {opacity:0;}
     57.5% {opacity:0}
      75%{opacity:1;}
       88%{opacity:0.5;}
   100%{opacity:0.5;}
     }

             @keyframes loading-08 {
       0%{opacity:0.5;}
       12.5% {opacity:0.5;}
       25% {opacity:0.25;}
       37.5% {opacity:0.25;}
       50% {opacity:0;}
     57.5% {opacity:0}
      75%{opacity:0;}
      88%{opacity:1;}
   100%{opacity:0.5;}
     }


     #shape-01{
      animation-name: loading-01;

    }
    #shape-02{
      animation-name: loading-02;

    }
     #shape-03{
      animation-name: loading-03;

    }

   #shape-04{
      animation-name: loading-04;

    }
  #shape-05{
      animation-name: loading-05;
    }
  #shape-06{
      animation-name: loading-06;

    }

  #shape-07{
      animation-name: loading-07;
    }
    #shape-08{
      animation-name: loading-08;
    }

</style>
<g>
<path id="shape-08" class="st0" d="M26,25.9c-2.4,2.4-6.3,2.4-8.7,0c-2.4-2.4-2.4-6.3,0-8.7c2.4-2.4,6.3-2.4,8.7,0
	C28.4,19.6,28.4,23.5,26,25.9z"/>
<path id="shape-07" class="st0" d="M21.2,37.5c0,3.4-2.8,6.2-6.2,6.2c-3.4,0-6.2-2.8-6.2-6.2c0-3.4,2.8-6.2,6.2-6.2
	C18.4,31.3,21.2,34.1,21.2,37.5z"/>
<path id="shape-06" class="st0" d="M25.9,57.7c-2.4,2.4-6.3,2.4-8.7,0c-2.4-2.4-2.4-6.3,0-8.7c2.4-2.4,6.3-2.4,8.7,0
	C28.3,51.4,28.3,55.3,25.9,57.7z"/>
<path id="shape-05" class="st0" d="M43.7,60c0,3.4-2.8,6.2-6.2,6.2c-3.4,0-6.2-2.8-6.2-6.2c0-3.4,2.8-6.2,6.2-6.2
	C40.9,53.8,43.7,56.6,43.7,60z"/>
<path id="shape-04" class="st0" d="M57.7,57.8c-2.4,2.4-6.3,2.4-8.7,0c-2.4-2.4-2.4-6.3,0-8.7c2.4-2.4,6.3-2.4,8.7,0
	C60.2,51.5,60.1,55.4,57.7,57.8z"/>
<path id="shape-03" class="st0" d="M66.2,37.5c0,3.4-2.8,6.2-6.2,6.2c-3.4,0-6.2-2.8-6.2-6.2c0-3.4,2.8-6.2,6.2-6.2
	C63.4,31.3,66.2,34.1,66.2,37.5z"/>
<path id="shape-02" class="st0" d="M57.8,26c-2.4,2.4-6.3,2.4-8.7,0c-2.4-2.4-2.4-6.3,0-8.7c2.4-2.4,6.3-2.4,8.7,0
	C60.2,19.7,60.2,23.6,57.8,26z"/>
<path id="shape-01" class="st0" d="M43.7,15c0,3.4-2.8,6.2-6.2,6.2c-3.4,0-6.2-2.8-6.2-6.2c0-3.4,2.8-6.2,6.2-6.2
	C40.9,8.8,43.7,11.6,43.7,15z"/>

</g>

</svg>
