<?xml version="1.0" encoding="utf-8"?>
<!-- Generator: Adobe Illustrator 24.1.0, SVG Export Plug-In . SVG Version: 6.00 Build 0)  -->
<svg version="1.1" id="Layer_1" xmlns="http://www.w3.org/2000/svg" xmlns:xlink="http://www.w3.org/1999/xlink" x="0px" y="0px"
	 viewBox="0 0 24 24" style="enable-background:new 0 0 24 24;" xml:space="preserve">
<style type="text/css">
	.st0{fill:none;}
	.st1{fill-rule:evenodd;clip-rule:evenodd;fill:#009FDB;}
</style>
<desc>Created with Sketch.</desc>
<g id="Hi-fidelity-Design">
	<g id="cart-5a-checkout-desktop-01" transform="translate(-182.000000, -514.000000)">
		<g id="Group-11" transform="translate(134.000000, 257.000000)">
			<g id="Group-10" transform="translate(24.000000, 232.000000)">
				<g id="Group-8" transform="translate(20.000000, 24.000000)">
					<g id="Group-7">
						<g id="Action_x2F_ic_x5F_lock_x5F_outline">
							<rect id="Bounds" x="4" y="1" class="st0" width="24" height="24"/>
							<path id="Color-Fill" class="st1" d="M16,18c1.1,0,2-0.9,2-2s-0.9-2-2-2s-2,0.9-2,2S14.9,18,16,18z M22,9h-1V7
								c0-2.8-2.2-5-5-5s-5,2.2-5,5v2h-1c-1.1,0-2,0.9-2,2v10c0,1.1,0.9,2,2,2h12c1.1,0,2-0.9,2-2V11C24,9.9,23.1,9,22,9z M12.9,7
								c0-1.7,1.4-3.1,3.1-3.1s3.1,1.4,3.1,3.1v2h-6.2V7z M22,21H10V11h12V21z"/>
						</g>
					</g>
				</g>
			</g>
		</g>
	</g>
</g>
</svg>
