<?xml version="1.0" encoding="UTF-8"?>
<svg width="49px" height="26px" viewBox="0 0 49 26" version="1.1" xmlns="http://www.w3.org/2000/svg" xmlns:xlink="http://www.w3.org/1999/xlink">
    <!-- Generator: Sketch 64 (93537) - https://sketch.com -->
    <title>Group 19</title>
    <desc>Created with Sketch.</desc>
    <g id="Hi-fidelity-Design" stroke="none" stroke-width="1" fill="none" fill-rule="evenodd">
        <g id="cart-8a-Payment-desktop-01" transform="translate(-470.000000, -737.000000)">
            <g id="Group-8" transform="translate(183.000000, 705.000000)">
                <g id="Group-22" transform="translate(233.000000, 32.000000)">
                    <g id="Group-19" transform="translate(54.984000, 0.000000)">
                        <path d="M4.2,0.2 L43.7,0.2 C45.9,0.2 47.7,2 47.7,4.2 L47.7,21.7 C47.7,23.9 45.9,25.7 43.7,25.7 L4.2,25.7 C2,25.7 0.2,23.9 0.2,21.7 L0.2,4.2 C0.3,2 2,0.2 4.2,0.2 Z" id="Path" fill="#FFFFFF"></path>
                        <path d="M43.8,26 L4.2,26 C1.9,26 0,24.1 0,21.8 L0,4.2 C0,1.9 1.9,0 4.2,0 L43.7,0 C46.1,0 48,1.9 48,4.2 L48,21.7 C48,24.1 46.1,26 43.8,26 Z M4.2,0.5 C2.1,0.5 0.5,2.2 0.5,4.3 L0.5,21.8 C0.5,23.9 2.2,25.6 4.2,25.6 L43.7,25.6 C45.8,25.6 47.5,23.9 47.5,21.8 L47.5,4.2 C47.5,2.1 45.8,0.4 43.7,0.4 L4.2,0.4 L4.2,0.5 Z" id="Shape" fill="#979797" fill-rule="nonzero"></path>
                        <rect id="Rectangle" fill="#F26522" fill-rule="nonzero" x="20.016" y="6.7" width="7" height="12.5"></rect>
                        <path d="M20.516,13 C20.516,10.5 21.716,8.2 23.516,6.7 C22.116,5.7 20.416,5 18.616,5 C14.216,5 10.616,8.6 10.616,13 C10.616,17.4 14.216,21 18.616,21 C20.516,21 22.216,20.4 23.516,19.3 C21.616,17.8 20.516,15.5 20.516,13" id="Path" fill="#E52423" fill-rule="nonzero"></path>
                        <path d="M35.616,17.9 L35.616,17.6 L35.716,17.6 L35.716,17.5 L35.416,17.5 L35.416,17.6 L35.516,17.6 L35.616,17.9 L35.616,17.9 Z M36.216,17.9 L36.216,17.6 L36.116,17.6 L36.016,17.8 L35.916,17.6 L35.816,17.6 L35.816,17.9 L35.916,17.9 L35.916,17.7 L36.016,17.9 L36.016,17.9 L36.116,17.7 L36.216,17.9 L36.216,17.9 Z" id="Shape" fill="#F99F1C" fill-rule="nonzero"></path>
                        <path d="M28.416,5 C26.516,5 24.816,5.6 23.516,6.7 C25.416,8.2 26.516,10.4 26.516,13 C26.516,15.6 25.316,17.8 23.516,19.3 C24.916,20.4 26.616,21 28.416,21 C32.816,21 36.416,17.4 36.416,13 C36.416,8.6 32.816,5 28.416,5" id="Path" fill="#F99F1C" fill-rule="nonzero"></path>
                    </g>
                </g>
            </g>
        </g>
    </g>
</svg>