<svg width="32" height="32" viewBox="0 0 32 32" fill="none" xmlns="http://www.w3.org/2000/svg">
<rect width="32" height="32" fill="white"/>
<mask id="mask0" mask-type="alpha" maskUnits="userSpaceOnUse" x="2" y="3" width="27" height="26">
<path d="M2.66663 3.33334H28.0003V28.6667H2.66663V3.33334Z" fill="white"/>
</mask>
<g mask="url(#mask0)">
<path fill-rule="evenodd" clip-rule="evenodd" d="M15.3332 28.6667C8.34883 28.6667 2.66626 22.9841 2.66626 15.9998C2.66626 9.01546 8.34883 3.33334 15.3332 3.33334C21.107 3.33334 26.1496 7.23225 27.5963 12.8149L25.8371 13.2709C24.5985 8.48903 20.279 5.15017 15.3332 5.15017C9.35035 5.15017 4.48308 10.017 4.48308 15.9998C4.48308 21.9826 9.35035 26.8499 15.3332 26.8499C21.316 26.8499 26.1832 21.9826 26.1832 15.9998H28C28 22.9841 22.3175 28.6667 15.3332 28.6667Z" fill="#99AF21"/>
</g>
<path fill-rule="evenodd" clip-rule="evenodd" d="M19.6792 18.1024C19.6792 20.3098 17.985 21.2895 16.2122 21.5375V22.7348C16.2122 22.9061 16.1037 23.0146 15.9329 23.0146H14.5335C14.3468 23.0146 14.2537 22.9061 14.2537 22.7348V21.5221C13.1191 21.3668 12.1553 20.9003 11.0979 20.0609C10.958 19.9524 10.958 19.8125 11.0511 19.6726L12.1085 18.1955C12.2016 18.0556 12.3419 18.0247 12.4814 18.1333C13.4143 18.7864 14.4086 19.1907 15.4192 19.2061C16.2744 19.2061 17.0675 18.8486 17.0675 18.1333C17.0675 17.4338 16.2277 17.2162 15.0617 16.9523C13.3984 16.5476 11.1601 15.8636 11.1601 13.4077C11.1601 11.4646 12.4505 10.454 14.2537 10.1742V9.03962C14.2537 8.86838 14.3468 8.75983 14.5335 8.75983H15.9329C16.1037 8.75983 16.2122 8.86838 16.2122 9.03962V10.112C17.2383 10.2364 18.1712 10.5939 19.2281 11.2938C19.3676 11.387 19.3989 11.5264 19.3058 11.6822L18.3111 13.1588C18.2021 13.3146 18.0781 13.33 17.9228 13.2365C17.0825 12.7082 16.15 12.4439 15.2484 12.4439C14.3155 12.4439 13.7559 12.8168 13.7559 13.4854C13.7559 14.1381 14.518 14.3561 15.6685 14.6359C17.6271 15.1024 19.6792 15.6311 19.6792 18.1024Z" fill="#99AF21"/>
<mask id="mask1" mask-type="alpha" maskUnits="userSpaceOnUse" x="20" y="6" width="9" height="9">
<path d="M20.968 6.66837H28.992V14.2341H20.968V6.66837Z" fill="white"/>
</mask>
<g mask="url(#mask1)">
<path fill-rule="evenodd" clip-rule="evenodd" d="M27.5131 14.2341L20.968 10.8888L21.7947 9.27051L26.2136 11.5293L27.2124 6.66837L28.992 7.03355L27.5131 14.2341Z" fill="#99AF21"/>
</g>
</svg>
