<svg width="32" height="32" viewBox="0 0 32 32" fill="none" xmlns="http://www.w3.org/2000/svg">
<mask id="mask0" mask-type="alpha" maskUnits="userSpaceOnUse" x="5" y="2" width="22" height="28">
<path d="M5.41553 2.46164H26.8801V29.6178H5.41553V2.46164Z" fill="white"/>
</mask>
<g mask="url(#mask0)">
<path fill-rule="evenodd" clip-rule="evenodd" d="M7.80863 6.11899C9.98513 14.1786 14.4056 21.3042 20.6603 26.8338L24.1134 22.7452C23.0997 21.8418 22.1313 20.8784 21.2211 19.8677L18.8664 21.8763L18.2273 21.1275C15.5881 18.0348 13.4397 14.5714 11.8406 10.8333L11.4537 9.92798L14.2997 8.71099C13.799 7.44872 13.3658 6.15296 13.0059 4.84096L7.80863 6.11899ZM20.8868 29.6178L20.135 28.9823C12.9153 22.885 7.9066 14.8117 5.65036 5.63604L5.41553 4.67998L14.4346 2.46164L14.6704 3.4177C15.1258 5.27075 15.7368 7.09721 16.4851 8.84736L16.8725 9.75272L14.0501 10.9594C15.3857 13.8728 17.0783 16.6012 19.0958 19.0923L21.4303 17.0999L22.0698 17.8487C23.308 19.2995 24.6736 20.6583 26.1279 21.8861L26.8801 22.5212L20.8868 29.6178Z" fill="#99AF21"/>
</g>
</svg>
