<?xml version="1.0" encoding="utf-8"?>
<!-- Generator: Adobe Illustrator 24.1.0, SVG Export Plug-In . SVG Version: 6.00 Build 0)  -->
<svg version="1.1" id="Layer_1" xmlns="http://www.w3.org/2000/svg" xmlns:xlink="http://www.w3.org/1999/xlink" x="0px" y="0px"
	 viewBox="0 0 24 24" style="enable-background:new 0 0 24 24;" xml:space="preserve">
<style type="text/css">
	.st0{fill:none;}
	.st1{fill-rule:evenodd;clip-rule:evenodd;fill:#0057B8;}
</style>
<desc>Created with Sketch.</desc>
<g id="Hi-fidelity-Design">
	<g id="cart-11a-Summary-desktop-02" transform="translate(-153.000000, -379.000000)">
		<g id="Group-9" transform="translate(134.000000, 277.000000)">
			<g id="Group-7" transform="translate(16.000000, 94.000000)">
				<g id="Group-8">
					<g id="Group-3">
						<g id="Communication_x2F_ic_x5F_call" transform="translate(0.000000, 5.000000)">
							<rect id="Bounds" x="3" y="3" class="st0" width="24" height="24"/>
							<path id="Color-Fill" class="st1" d="M9.6,13.8c1.4,2.8,3.8,5.1,6.6,6.6l2.2-2.2c0.3-0.3,0.7-0.4,1-0.2
								c1.1,0.4,2.3,0.6,3.6,0.6c0.5,0,1,0.4,1,1V23c0,0.5-0.5,1-1,1C13.6,24,6,16.4,6,7c0-0.6,0.4-1,1-1h3.5c0.6,0,1,0.4,1,1
								c0,1.2,0.2,2.4,0.6,3.6c0.1,0.4,0,0.7-0.2,1L9.6,13.8z"/>
						</g>
					</g>
				</g>
			</g>
		</g>
	</g>
</g>
</svg>
