<svg width="24" height="24" viewBox="0 0 24 24" fill="none" xmlns="http://www.w3.org/2000/svg">
<mask id="mask0" mask-type="alpha" maskUnits="userSpaceOnUse" x="4" y="1" width="17" height="22">
<path d="M4.06165 1.84625H20.1601V22.2134H4.06165V1.84625Z" fill="white"/>
</mask>
<g mask="url(#mask0)">
<path fill-rule="evenodd" clip-rule="evenodd" d="M5.85648 4.58927C7.48885 10.6339 10.8042 15.9782 15.4952 20.1254L18.085 17.0589C17.3248 16.3814 16.5985 15.6588 15.9158 14.9008L14.1498 16.4072L13.6705 15.8456C11.6911 13.5261 10.0797 10.9286 8.88048 8.12502L8.59026 7.44601L10.7248 6.53327C10.3493 5.58656 10.0244 4.61474 9.75445 3.63074L5.85648 4.58927ZM15.6651 22.2134L15.1013 21.7367C9.68651 17.1638 5.92995 11.1088 4.23777 4.22705L4.06165 3.51001L10.826 1.84625L11.0028 2.5633C11.3444 3.95308 11.8026 5.32293 12.3638 6.63554L12.6544 7.31456L10.5376 8.21954C11.5393 10.4047 12.8087 12.4509 14.3218 14.3192L16.0727 12.825L16.5524 13.3866C17.481 14.4747 18.5052 15.4938 19.5959 16.4146L20.1601 16.8909L15.6651 22.2134Z" fill="#FFFFFF"/>
</g>
</svg>
