<?xml version="1.0" encoding="utf-8"?>
<!-- Generator: Adobe Illustrator 24.1.0, SVG Export Plug-In . SVG Version: 6.00 Build 0)  -->
<svg version="1.1" id="Layer_1" xmlns="http://www.w3.org/2000/svg" xmlns:xlink="http://www.w3.org/1999/xlink" x="0px" y="0px"
	 viewBox="0 0 24 24" style="enable-background:new 0 0 24 24;" xml:space="preserve">
<style type="text/css">
	.st0{fill-rule:evenodd;clip-rule:evenodd;fill:#84C4FF;}
	.st1{fill:#84C4FF;}
	.st2{fill:none;}
</style>
<desc>Created with Sketch.</desc>
<g id="Hi-fidelity-Design-_x28_No-notes_x29_">
	<g id="cart-4b-bundling-desktop-01" transform="translate(-842.000000, -587.000000)">
		<g id="Group-12-Copy-2" transform="translate(361.000000, 122.000000)">
			<g id="Group-17" transform="translate(36.000000, 425.000000)">
				<g id="Group-19" transform="translate(332.000000, 28.000000)">
					<g id="Group-10" transform="translate(0.000000, 5.000000)">
						<g id="Group-6" transform="translate(114.000000, 8.000000)">
							<g id="Content_x2F_ic_x5F_add" transform="translate(2.400000, 2.400000)">
								<g id="Color-Fill">
									<polygon class="st0" points="13.3,9.3 9.3,9.3 9.3,13.3 7.9,13.3 7.9,9.3 3.9,9.3 3.9,7.9 7.9,7.9 7.9,3.9 9.3,3.9 
										9.3,7.9 13.3,7.9 									"/>
								</g>
							</g>
							<g id="Oval">
								<path class="st1" d="M11,22C4.9,22,0,17.1,0,11C0,4.9,4.9,0,11,0c6.1,0,11,4.9,11,11C22,17.1,17.1,22,11,22z M11,1.7
									c-5.1,0-9.3,4.2-9.3,9.3s4.2,9.3,9.3,9.3s9.3-4.2,9.3-9.3S16.1,1.7,11,1.7z"/>
							</g>
						</g>
					</g>
				</g>
			</g>
		</g>
	</g>
</g>
<rect class="st2" width="24" height="24"/>
</svg>
