<?xml version="1.0" encoding="utf-8"?>
<!-- Generator: Adobe Illustrator 24.1.0, SVG Export Plug-In . SVG Version: 6.00 Build 0)  -->
<svg version="1.1" id="Layer_1" xmlns="http://www.w3.org/2000/svg" xmlns:xlink="http://www.w3.org/1999/xlink" x="0px" y="0px"
	 viewBox="0 0 210 150" style="enable-background:new 0 0 210 150;" xml:space="preserve">
<style type="text/css">
	.st0{opacity:0.3;fill:#FFB000;}
	.st1{opacity:0.3;fill:url(#SVGID_1_);}
	.st2{opacity:0.25;fill:#009FDB;}
	.st3{fill:url(#SVGID_2_);}
	.st4{fill:url(#SVGID_3_);}
	.st5{fill:#0079B1;}
	.st6{fill:#FEF2DD;}
	.st7{fill:#6C6C6D;}
	.st8{fill:#949599;}
	.st9{fill:#BFBFBF;}
	.st10{fill:#F9C306;}
	.st11{fill:url(#SVGID_4_);}
	.st12{fill:url(#SVGID_5_);}
	.st13{fill:#FAE940;}
	.st14{fill:#3E3768;}
	.st15{fill:#1A133A;}
	.st16{fill:#544D7F;}
	.st17{fill:#00B0EB;}
	.st18{opacity:0.3;fill:url(#SVGID_6_);}
	.st19{fill:none;}
</style>
<linearGradient id="SVGID_1_" gradientUnits="userSpaceOnUse" x1="98.7492" y1="14.9829" x2="212.3686" y2="14.9829" gradientTransform="matrix(-0.3336 0.9427 -0.9427 -0.3336 190.3664 -65.344)">
	<stop  offset="0" style="stop-color:#6EB4FA"/>
	<stop  offset="0.997" style="stop-color:#009FDB"/>
</linearGradient>
<path class="st1" d="M108.1,114.1c12.7-10.7,28.8,7.1,43.4,6.2c17-1,31.4-14.4,33.7-31.3c2.4-17.7-8.1-32.5-23.8-39.1
	c-11.3-4.8-15.3-2.1-23.1-12c-5.4-6.8-4-14.6-12.2-20.3c-14.3-10-33.3-3-39.6,12.8c-2.4,6,0.7,13.6-1.9,19.2
	C80,59.2,70.9,59.7,64.3,67C38.3,96,77.2,140.1,108.1,114.1z"/>
<path class="st2" d="M157.7,95.2c11.7-29.2-30.9-64.4-48.7-64.4c-17.8,0-14.7,21.9-25.5,36.1c-10.7,14.3-35.9,21.6-24.4,40
	C75.5,133.3,145.3,126.1,157.7,95.2z"/>
<g>
	<g>
		<g>
			<path class="st8" d="M92.8,38H59c-4.2,0-7.6,3.4-7.6,7.6v4.3h3.2v-4.3c0-2.4,2-4.4,4.4-4.4h33.9c2.4,0,4.4,2,4.4,4.4v4.3h3.2
				v-4.3C100.4,41.4,97,38,92.8,38z"/>
			<path class="st9" d="M92.8,34.8H59c-5.9,0-10.8,4.8-10.8,10.8v4.3h3.2v-4.3c0-4.2,3.4-7.6,7.6-7.6h33.9c4.2,0,7.6,3.4,7.6,7.6
				v4.3h3.2v-4.3C103.6,39.6,98.8,34.8,92.8,34.8z"/>
		</g>
		<g>
			<path class="st9" d="M59.1,51c0-0.9-0.7-1.7-1.7-1.7h-12c-0.9,0-1.7,0.7-1.7,1.7v1.7h15.4V51z"/>
			<path class="st9" d="M106.4,49.3h-12c-0.9,0-1.7,0.7-1.7,1.7v1.7h15.4V51C108.1,50.1,107.3,49.3,106.4,49.3z"/>
		</g>
	</g>
	<path class="st10" d="M142.9,82.4c0,1.5-1.2,2.8-2.8,2.8H12.4c-1.5,0-2.8-1.2-2.8-2.8V55.1c0-1.5,1.2-2.8,2.8-2.8h127.7
		c1.5,0,2.8,1.2,2.8,2.8V82.4z"/>
	<linearGradient id="SVGID_2_" gradientUnits="userSpaceOnUse" x1="12.1566" y1="168.0534" x2="120.8826" y2="67.3942">
		<stop  offset="0" style="stop-color:#FF585D"/>
		<stop  offset="1" style="stop-color:#FFB000"/>
	</linearGradient>
	<path class="st3" d="M138.9,85.2H13.6v46c0,0.9,0.7,1.7,1.7,1.7h122.5c0.6,0,1.2-0.5,1.2-1.2V85.2z"/>
	<linearGradient id="SVGID_3_" gradientUnits="userSpaceOnUse" x1="35.8953" y1="152.9106" x2="121.9279" y2="12.1299">
		<stop  offset="0" style="stop-color:#FF585D"/>
		<stop  offset="1" style="stop-color:#FFB000"/>
	</linearGradient>
	<rect x="13.6" y="85.2" class="st4" width="125.3" height="3.3"/>
	<path class="st13" d="M140,58.4c0,0.7-0.6,1.3-1.3,1.3H13.8c-0.7,0-1.3-0.6-1.3-1.3v-1.9c0-0.7,0.6-1.3,1.3-1.3h124.9
		c0.7,0,1.3,0.6,1.3,1.3V58.4z"/>
	<g>
		<path class="st14" d="M85.2,102.2c0,0.8-0.7,1.5-1.5,1.5H68.1c-0.8,0-1.5-0.7-1.5-1.5v-24c0-0.8,0.7-1.5,1.5-1.5h15.6
			c0.8,0,1.5,0.7,1.5,1.5V102.2z"/>
		<path class="st15" d="M81.5,107.1c0,0.8-0.7,1.5-1.5,1.5h-8.2c-0.8,0-1.5-0.7-1.5-1.5V76.6h11.2V107.1z"/>
		<g>
			<path class="st16" d="M78.7,105.7c0,0.3-0.3,0.6-0.6,0.6h-4.4c-0.3,0-0.6-0.3-0.6-0.6V87c0-0.3,0.3-0.6,0.6-0.6h4.4
				c0.3,0,0.6,0.3,0.6,0.6V105.7z"/>
			<path class="st16" d="M78.7,79.5c0-0.3-0.3-0.6-0.6-0.6h-4.4c-0.3,0-0.6,0.3-0.6,0.6v4c0,0.3,0.3,0.6,0.6,0.6h4.4
				c0.3,0,0.6-0.3,0.6-0.6V79.5z"/>
		</g>
	</g>
</g>
<linearGradient id="SVGID_4_" gradientUnits="userSpaceOnUse" x1="144.2727" y1="29.6285" x2="170.6328" y2="29.6285">
	<stop  offset="0" style="stop-color:#6EB4FA"/>
	<stop  offset="0.997" style="stop-color:#009FDB"/>
</linearGradient>
<circle style="opacity:0.3;fill:url(#SVGID_4_);" cx="157.5" cy="29.6" r="13.2"/>
<rect class="st19" width="210" height="150"/>
</svg>
