<?xml version="1.0" encoding="utf-8"?>
<!-- Generator: Adobe Illustrator 24.1.0, SVG Export Plug-In . SVG Version: 6.00 Build 0)  -->
<svg version="1.1" id="Layer_1" xmlns="http://www.w3.org/2000/svg" xmlns:xlink="http://www.w3.org/1999/xlink" x="0px" y="0px"
	 viewBox="0 0 24 24" style="enable-background:new 0 0 24 24;" xml:space="preserve">
<style type="text/css">
	.st0{fill:none;}
	.st1{fill-rule:evenodd;clip-rule:evenodd;fill:#242424;}
</style>
<desc>Created with Sketch.</desc>
<g id="Hi-fidelity-Design-_x28_No-notes_x29_">
	<g id="cart-2b-ServiceAddress-desktop-" transform="translate(-122.000000, -213.000000)">
		<g id="Group-2" transform="translate(120.000000, 211.000000)">
			<g id="Action_x2F_ic_x5F_help_x5F_outline">
				<rect id="Bounds" x="2" y="2" class="st0" width="24" height="24"/>
				<path id="Color-Fill" class="st1" d="M13,20h2v-2h-2V20z M14,4C8.5,4,4,8.5,4,14s4.5,10,10,10s10-4.5,10-10S19.5,4,14,4z M14,22
					c-4.4,0-8-3.6-8-8s3.6-8,8-8s8,3.6,8,8S18.4,22,14,22z M14,8c-2.2,0-4,1.8-4,4h2c0-1.1,0.9-2,2-2s2,0.9,2,2c0,2-3,1.8-3,5h2
					c0-2.2,3-2.5,3-5C18,9.8,16.2,8,14,8z"/>
			</g>
		</g>
	</g>
</g>
</svg>
