<?xml version="1.0" encoding="utf-8"?>
<!-- Generator: Adobe Illustrator 24.2.1, SVG Export Plug-In . SVG Version: 6.00 Build 0)  -->
<svg version="1.1" id="Layer_1" xmlns="http://www.w3.org/2000/svg" xmlns:xlink="http://www.w3.org/1999/xlink" x="0px" y="0px"
	 viewBox="0 0 210 150" style="enable-background:new 0 0 210 150;" xml:space="preserve">
<style type="text/css">
	.st0{fill:none;}
	.st1{opacity:0.3;fill:#91DC00;}
	.st2{fill:#3F3F3F;}
	.st3{fill:#242424;}
	.st4{fill:#75F1FF;}
	.st5{fill:#0BBDD0;}
	.st6{fill:#91DC00;}
	.st7{fill:#FFFFFF;}
	.st8{opacity:0.2;fill:#0E7581;}
	.st9{fill:url(#SVGID_1_);}
	.st10{fill:url(#SVGID_2_);}
	.st11{fill:#E6E6E6;}
	.st12{fill:#CCCCCC;}
	.st13{fill:url(#SVGID_3_);}
	.st14{fill:url(#SVGID_4_);}
	.st15{fill:url(#SVGID_5_);}
	.st16{fill:url(#SVGID_6_);}
	.st17{fill:url(#SVGID_7_);}
	.st18{fill:url(#SVGID_8_);}
	.st19{fill:url(#SVGID_9_);}
	.st20{fill:url(#SVGID_10_);}
	.st21{fill:url(#SVGID_11_);}
	.st22{fill:url(#SVGID_12_);}
	.st23{fill:url(#SVGID_13_);}
	.st24{fill:url(#SVGID_14_);}
	.st25{fill:url(#SVGID_15_);}
	.st26{fill:url(#SVGID_16_);}
	.st27{fill:url(#SVGID_17_);}
	.st28{fill:url(#SVGID_18_);}
	.st29{fill:url(#SVGID_19_);}
	.st30{fill:url(#SVGID_20_);}
	.st31{fill:url(#SVGID_21_);}
	.st32{fill:#FFB000;}
	.st33{fill:#D88AFF;}
	.st34{fill:#681093;}
</style>
<rect class="st0" width="210" height="150"/>
<g>
	<g>
		<circle class="st1" cx="150.3" cy="30.9" r="13.9"/>
		<path class="st1" d="M68.4,24.9c-6.6,16.1-32.9,9.6-45,22.6c-12.2,13-13.6,33.5-3.3,48c14.1,19.9,29.6,13.4,49.2,11.5
			c17.9-1.7,18.5,9.7,33.8,16c15.7,6.5,34.3,0.1,42.5-14.9c11.3-20.8-1.2-32.4-13.7-46.1c-13.6-14.9-1.6-35-18.2-48.6
			C99,1.4,75.7,7,68.4,24.9z"/>
		<path class="st1" d="M107.8,90.9c17.7-19.5-5.4-59.4-19.4-64.6c-14-5.2-17.9,12.8-30.5,20.9c-12.6,8-34.4,6.5-30.8,24.2
			C32.3,96.8,89.1,111.6,107.8,90.9z"/>
	</g>
	<g>
		<g>
			<path class="st2" d="M178.4,138h-9.8c-0.3,0-0.5-0.1-0.7-0.3l-20-20c-0.4-0.4-0.4-1,0-1.3l4.9-4.9c0.4-0.4,1-0.4,1.3,0l24.9,24.9
				c0.3,0.3,0.4,0.7,0.2,1C179.2,137.7,178.8,138,178.4,138z"/>
		</g>
		<g>
			<path class="st2" d="M64.6,137.4c-0.1-0.4-0.1-0.8,0.2-1l24.9-24.9c0.4-0.4,1-0.4,1.3,0l4.9,4.9c0.4,0.4,0.4,1,0,1.3l-20,20
				c-0.2,0.2-0.4,0.3-0.7,0.3h-9.8C65.1,138,64.8,137.7,64.6,137.4z"/>
		</g>
		<g>
			<path class="st3" d="M152.9,111.5l-4.9,4.9c-0.4,0.4-0.4,1,0,1.3l13.5,13.5H174l-19.8-19.8C153.9,111.1,153.3,111.1,152.9,111.5z
				"/>
			<path class="st3" d="M95.9,116.4l-4.9-4.9c-0.4-0.4-1-0.4-1.3,0l-19.8,19.8h12.5l13.5-13.5C96.3,117.4,96.3,116.8,95.9,116.4z"/>
		</g>
		<path class="st3" d="M193.8,40.2c-0.8-0.8-1.9-1.3-3-1.3H53.1c-1.1,0-2.2,0.5-3,1.3c-0.8,0.8-1.3,1.9-1.3,3v80.9
			c0,1.1,0.5,2.2,1.3,3c0.8,0.8,1.9,1.3,3,1.3h137.7c1.1,0,2.2-0.5,3-1.3c0.8-0.8,1.3-1.9,1.3-3V43.2
			C195.1,42.1,194.6,41,193.8,40.2z"/>
		<g>
			<path class="st2" d="M50.1,127.1c0.8,0.8,1.9,1.3,3,1.3h137.7c1.1,0,2.2-0.5,3-1.3c0.8-0.8,1.3-1.9,1.3-3V55.2L48.9,107.1v17
				C48.9,125.2,49.3,126.3,50.1,127.1z"/>
		</g>
		<g>
			<polygon class="st4" points="189.5,44.4 54.4,44.4 54.4,105.2 189.5,57.3 			"/>
			<polygon class="st5" points="189.5,121.3 189.5,57.3 54.4,105.2 54.4,121.3 			"/>
		</g>
		<g>
			<path class="st6" d="M68,94.1c-0.5-0.2-1.1,0.1-1.3,0.7l-0.2,0.6v-1.7c0-0.6-0.5-1-1-1c-0.6,0-1,0.5-1,1v0.9l0,0
				c-0.2-0.5-0.8-0.8-1.3-0.7c-0.5,0.2-0.8,0.8-0.7,1.3l1.6,4.9c0.1,0.4,0.5,0.7,1,0.7c0.1,0,0.2,0,0.3-0.1c0.2-0.1,0.3-0.1,0.4-0.3
				c0.1,0,0.1,0.1,0.2,0.1c0.1,0,0.2,0,0.3,0c0.4,0,0.8-0.3,1-0.7l1.4-4.7C68.8,94.8,68.5,94.3,68,94.1z"/>
			<path class="st6" d="M150.9,94.1c-0.5-0.1-1,0.2-1.2,0.8v-1.1c0-0.6-0.5-1-1-1c-0.6,0-1,0.5-1,1v4.3l-0.7-2.2
				c-0.2-0.5-0.8-0.8-1.3-0.7c-0.5,0.2-0.8,0.8-0.7,1.3l1.6,4.9c0.1,0.4,0.5,0.7,1,0.7c0.1,0,0.2,0,0.3-0.1c0.5-0.2,0.8-0.8,0.7-1.3
				l-0.2-0.6c0.1,0,0.2,0.1,0.3,0.1c0.1,0,0.2,0,0.3-0.1c0.1,0.3,0.4,0.5,0.7,0.6c0.1,0,0.1,0,0.2,0c0.5,0,0.9-0.4,1-0.8l0.8-4.8
				C151.8,94.7,151.4,94.2,150.9,94.1z"/>
			<path class="st6" d="M187.1,95.5c-0.3-0.1-0.6,0.1-0.9,0.3v-0.5c0-0.6-0.5-1-1-1c-0.6,0-1,0.5-1,1v4.6l-0.7-3.7
				c-0.1-0.6-0.6-0.9-1.2-0.8c-0.6,0.1-0.9,0.6-0.8,1.2l0.9,5.1c0.1,0.5,0.5,0.8,1,0.8c0.1,0,0.1,0,0.2,0c0.5-0.1,0.8-0.5,0.8-0.9
				c0.2,0.2,0.5,0.4,0.8,0.4c0,0,0,0,0.1,0c0.2,0.2,0.4,0.4,0.6,0.4c0.1,0,0.1,0,0.2,0c0.5,0,0.9-0.4,1-0.8l0.8-4.8
				C188,96.1,187.6,95.6,187.1,95.5z"/>
		</g>
		<rect x="54.4" y="97.9" class="st6" width="135.1" height="23.3"/>
		<rect x="72.4" y="97.9" class="st7" width="5.3" height="23.3"/>
		<rect x="165.8" y="97.9" class="st7" width="5.3" height="23.3"/>
		<path class="st8" d="M141.3,106.2c0,2.5-10.5,4.6-23.5,4.6c-13,0-23.5-2-23.5-4.6s10.5-4.6,23.5-4.6
			C130.8,101.6,141.3,103.7,141.3,106.2z"/>
		<g>
			<g>
				
					<linearGradient id="SVGID_1_" gradientUnits="userSpaceOnUse" x1="308.6115" y1="325.7207" x2="317.4343" y2="355.267" gradientTransform="matrix(0.7464 0.6655 -0.6655 0.7464 126.585 -412.1192)">
					<stop  offset="0" style="stop-color:#FFB000"/>
					<stop  offset="1" style="stop-color:#FF585D"/>
				</linearGradient>
				<path class="st9" d="M155.5,65.7c-0.4-1.8-1-3.7-1.7-5.5c-2.2-5.7-5.6-11.6-10.9-16.2c-5.9-5.3-13.1-8.2-19.7-9.5
					c-2.1-0.4-4.1-0.7-6-0.8c-6.6-0.4-11.9,0.8-13.6,2.6L155,82C156.9,80,157.4,73.4,155.5,65.7z"/>
				
					<linearGradient id="SVGID_2_" gradientUnits="userSpaceOnUse" x1="338.2457" y1="333.6688" x2="298.4403" y2="366.0876" gradientTransform="matrix(0.7464 0.6655 -0.6655 0.7464 126.585 -412.1192)">
					<stop  offset="0" style="stop-color:#FFB000"/>
					<stop  offset="1" style="stop-color:#FF585D"/>
				</linearGradient>
				<path class="st10" d="M155,82c0,0-51.3-45.7-51.3-45.7c-1.7,1.9-2.2,7.3-1.1,13.8c0.3,1.9,0.8,3.8,1.5,5.8
					c2.1,6.4,5.8,13.2,11.7,18.5c5.2,4.6,11.4,7.4,17.3,8.9c1.9,0.5,3.9,0.8,5.7,1.1C146.7,85.4,153.2,84.1,155,82
					C155,82,155,82,155,82z"/>
				<path class="st7" d="M147.2,75.1l8.3-9.4c-0.4-1.8-1-3.7-1.7-5.5l-10.3,11.6L147.2,75.1z"/>
				<path class="st11" d="M143.5,71.8l-10.4,11.6c1.9,0.5,3.9,0.8,5.7,1.1l8.4-9.4L143.5,71.8z"/>
				<path class="st7" d="M111.6,43.3l8.3-9.4c1.8,0.2,3.8,0.6,5.7,1.1l-10.3,11.6L111.6,43.3z"/>
				<path class="st11" d="M115.3,46.6l-10.4,11.6c-0.7-1.9-1.3-3.7-1.7-5.5l8.4-9.4L115.3,46.6z"/>
			</g>
			
				<rect x="128.1" y="44.6" transform="matrix(0.6655 -0.7464 0.7464 0.6655 -0.9015 116.359)" class="st7" width="2.5" height="29.1"/>
			<g>
				
					<rect x="128.3" y="45.1" transform="matrix(0.6655 -0.7464 0.7464 0.6655 -1.3873 116.2052)" class="st12" width="1.2" height="29.1"/>
			</g>
			<g>
				<path class="st7" d="M115.9,51.6c-0.1-0.1-0.1-0.1-0.1-0.2l0,0c0-0.1,0-0.2,0.1-0.2l3.9-4.4c0.1-0.1,0.1-0.1,0.2-0.1l0,0
					c0.1,0,0.2,0,0.2,0.1l0,0l1,0.9c0.1,0.1,0.1,0.1,0.1,0.2l0,0c0,0.1,0,0.2-0.1,0.2l0,0l-3.9,4.4c-0.1,0.1-0.1,0.1-0.2,0.1l0,0
					c-0.1,0-0.2,0-0.2-0.1L115.9,51.6z"/>
				<path class="st7" d="M119,54.3c-0.1-0.1-0.1-0.1-0.1-0.2l0,0c0-0.1,0-0.2,0.1-0.2l0,0l3.9-4.4c0.1-0.1,0.1-0.1,0.2-0.1l0,0
					c0.1,0,0.2,0,0.2,0.1l0,0l1,0.9c0.1,0.1,0.1,0.1,0.1,0.2l0,0c0,0.1,0,0.2-0.1,0.2l0,0l-3.9,4.4c-0.1,0.1-0.1,0.1-0.2,0.1l0,0
					c-0.1,0-0.2,0-0.2-0.1L119,54.3z"/>
				<path class="st7" d="M122.1,57.1c-0.1-0.1-0.1-0.1-0.1-0.2l0,0c0-0.1,0-0.2,0.1-0.2l0,0l3.9-4.4c0.1-0.1,0.1-0.1,0.2-0.1l0,0
					c0.1,0,0.2,0,0.2,0.1l0,0l1,0.9c0.1,0.1,0.1,0.1,0.1,0.2l0,0c0,0.1,0,0.2-0.1,0.2l0,0l-3.9,4.4c-0.1,0.1-0.1,0.1-0.2,0.1l0,0
					c-0.1,0-0.2,0-0.2-0.1l0,0L122.1,57.1z"/>
				<path class="st7" d="M125.1,59.8c-0.1-0.1-0.1-0.1-0.1-0.2l0,0c0-0.1,0-0.2,0.1-0.2l3.9-4.4c0.1-0.1,0.1-0.1,0.2-0.1l0,0
					c0.1,0,0.2,0,0.2,0.1l1,0.9c0.1,0.1,0.1,0.1,0.1,0.2l0,0c0,0.1,0,0.2-0.1,0.2l-3.9,4.4c-0.1,0.1-0.1,0.1-0.2,0.1l0,0
					c-0.1,0-0.2,0-0.2-0.1L125.1,59.8z"/>
				<path class="st7" d="M128.2,62.6c-0.1-0.1-0.1-0.1-0.1-0.2l0,0c0-0.1,0-0.2,0.1-0.2l3.9-4.4c0.1-0.1,0.1-0.1,0.2-0.1l0,0
					c0.1,0,0.2,0,0.2,0.1l1,0.9c0.1,0.1,0.1,0.1,0.1,0.2l0,0c0,0.1,0,0.2-0.1,0.2l-3.9,4.4c-0.1,0.1-0.1,0.1-0.2,0.1l0,0
					c-0.1,0-0.2,0-0.2-0.1L128.2,62.6z"/>
				<path class="st7" d="M131.3,65.3c-0.1-0.1-0.1-0.1-0.1-0.2l0,0c0-0.1,0-0.2,0.1-0.2l0,0l3.9-4.4c0.1-0.1,0.1-0.1,0.2-0.1l0,0
					c0.1,0,0.2,0,0.2,0.1l0,0l1,0.9c0.1,0.1,0.1,0.1,0.1,0.2l0,0c0,0.1,0,0.2-0.1,0.2l0,0l-3.9,4.4c-0.1,0.1-0.1,0.1-0.2,0.1l0,0
					c-0.1,0-0.2,0-0.2-0.1l0,0L131.3,65.3L131.3,65.3z"/>
				<path class="st7" d="M134.4,68.1c-0.1-0.1-0.1-0.1-0.1-0.2l0,0c0-0.1,0-0.2,0.1-0.2l0,0l3.9-4.4c0.1-0.1,0.1-0.1,0.2-0.1l0,0
					c0.1,0,0.2,0,0.2,0.1l0,0l1,0.9c0.1,0.1,0.1,0.1,0.1,0.2l0,0c0,0.1,0,0.2-0.1,0.2l0,0l-3.9,4.4c-0.1,0.1-0.1,0.1-0.2,0.1l0,0
					c-0.1,0-0.2,0-0.2-0.1l0,0L134.4,68.1L134.4,68.1z"/>
				<path class="st7" d="M137.5,70.8c-0.1-0.1-0.1-0.1-0.1-0.2l0,0c0-0.1,0-0.2,0.1-0.2l0,0l3.9-4.4c0.1-0.1,0.1-0.1,0.2-0.1l0,0
					c0.1,0,0.2,0,0.2,0.1l0,0l1,0.9c0.1,0.1,0.1,0.1,0.1,0.2l0,0c0,0.1,0,0.2-0.1,0.2l0,0l-3.9,4.4c-0.1,0.1-0.1,0.1-0.2,0.1l0,0
					c-0.1,0-0.2,0-0.2-0.1l0,0L137.5,70.8L137.5,70.8z"/>
			</g>
			<g>
				<path class="st11" d="M115.8,51.3c0,0.1,0,0.2,0.1,0.2l1,0.9c0.1,0.1,0.2,0.1,0.2,0.1c0.1,0,0.2,0,0.2-0.1l2-2.2l-1.5-1.3
					l-2,2.2C115.8,51.2,115.8,51.2,115.8,51.3z"/>
				<path class="st11" d="M118.9,54.1c0,0.1,0,0.2,0.1,0.2l1,0.9c0.1,0.1,0.2,0.1,0.2,0.1c0.1,0,0.2,0,0.2-0.1l2-2.2l-1.5-1.3
					l-2,2.2C118.9,53.9,118.9,54,118.9,54.1z"/>
				<path class="st11" d="M121.9,56.8c0,0.1,0,0.2,0.1,0.2l1,0.9c0.1,0.1,0.2,0.1,0.2,0.1c0.1,0,0.2,0,0.2-0.1l2-2.2l-1.5-1.3
					l-2,2.2C122,56.7,121.9,56.7,121.9,56.8z"/>
				<path class="st11" d="M125,59.6c0,0.1,0,0.2,0.1,0.2l1,0.9c0.1,0.1,0.2,0.1,0.2,0.1c0.1,0,0.2,0,0.2-0.1l2-2.2l-1.5-1.3l-2,2.2
					C125.1,59.4,125,59.5,125,59.6z"/>
				<path class="st11" d="M128.1,62.3c0,0.1,0,0.2,0.1,0.2l1,0.9c0.1,0.1,0.2,0.1,0.2,0.1c0.1,0,0.2,0,0.2-0.1l2-2.2l-1.5-1.3
					l-2,2.2C128.1,62.2,128.1,62.2,128.1,62.3z"/>
				<path class="st11" d="M131.2,65.1c0,0.1,0,0.2,0.1,0.2l1,0.9c0.1,0.1,0.2,0.1,0.2,0.1c0.1,0,0.2,0,0.2-0.1l2-2.2l-1.5-1.3
					l-2,2.2C131.2,64.9,131.2,65,131.2,65.1z"/>
				<path class="st11" d="M134.3,67.8c0,0.1,0,0.2,0.1,0.2l1,0.9c0.1,0.1,0.1,0.1,0.2,0.1c0.1,0,0.2,0,0.2-0.1l2-2.2l-1.5-1.3
					l-2,2.2C134.3,67.7,134.3,67.7,134.3,67.8z"/>
				<path class="st11" d="M137.4,70.6c0,0.1,0,0.2,0.1,0.2l1,0.9c0.1,0.1,0.2,0.1,0.2,0.1c0.1,0,0.2,0,0.2-0.1l2-2.2l-1.5-1.3
					l-2,2.2C137.4,70.4,137.4,70.5,137.4,70.6z"/>
			</g>
		</g>
	</g>
	<g>
		<g>
			<path class="st2" d="M60,140.4c0,1.4-1.2,2.6-2.6,2.6H41.5c-1.4,0-3.7-1.7-3.7-3.7V77.4c0-1.4,1.2-2.6,2.6-2.6h15.8
				c2.1,0,3.7,2.2,3.7,3.7V140.4z"/>
			<linearGradient id="SVGID_3_" gradientUnits="userSpaceOnUse" x1="55.9979" y1="114.0375" x2="35.8598" y2="98.9793">
				<stop  offset="0" style="stop-color:#242424"/>
				<stop  offset="1" style="stop-color:#3F3F3F"/>
			</linearGradient>
			<path class="st13" d="M58.8,139.2c0,1.4-1.2,2.6-2.6,2.6H40.3c-1.4,0-2.6-1.2-2.6-2.6V77.3c0-1.4,1.2-2.6,2.6-2.6h15.8
				c1.4,0,2.6,1.2,2.6,2.6V139.2z"/>
			<linearGradient id="SVGID_4_" gradientUnits="userSpaceOnUse" x1="37.4641" y1="71.8354" x2="43.8445" y2="81.8994">
				<stop  offset="0" style="stop-color:#FFB000"/>
				<stop  offset="1" style="stop-color:#FF585D"/>
			</linearGradient>
			<path class="st14" d="M44.3,79.7c0,1-0.8,1.9-1.9,1.9c-1,0-1.9-0.8-1.9-1.9c0-1,0.8-1.9,1.9-1.9C43.5,77.9,44.3,78.7,44.3,79.7z"
				/>
			<linearGradient id="SVGID_5_" gradientUnits="userSpaceOnUse" x1="41.1467" y1="84.1488" x2="43.7649" y2="86.767">
				<stop  offset="0.3061" style="stop-color:#FFFFFF"/>
				<stop  offset="1" style="stop-color:#BFBFBF"/>
			</linearGradient>
			<path class="st15" d="M44.3,85.5c0,1-0.8,1.9-1.9,1.9c-1,0-1.9-0.8-1.9-1.9c0-1,0.8-1.9,1.9-1.9C43.5,83.6,44.3,84.4,44.3,85.5z"
				/>
			<linearGradient id="SVGID_6_" gradientUnits="userSpaceOnUse" x1="46.9606" y1="84.1488" x2="49.5789" y2="86.767">
				<stop  offset="0.3061" style="stop-color:#FFFFFF"/>
				<stop  offset="1" style="stop-color:#BFBFBF"/>
			</linearGradient>
			<path class="st16" d="M50.1,85.5c0,1-0.8,1.9-1.9,1.9c-1,0-1.9-0.8-1.9-1.9c0-1,0.8-1.9,1.9-1.9C49.3,83.6,50.1,84.4,50.1,85.5z"
				/>
			<linearGradient id="SVGID_7_" gradientUnits="userSpaceOnUse" x1="52.7746" y1="84.1488" x2="55.3928" y2="86.767">
				<stop  offset="0.3061" style="stop-color:#FFFFFF"/>
				<stop  offset="1" style="stop-color:#BFBFBF"/>
			</linearGradient>
			<path class="st17" d="M55.9,85.5c0,1-0.8,1.9-1.9,1.9c-1,0-1.9-0.8-1.9-1.9c0-1,0.8-1.9,1.9-1.9C55.1,83.6,55.9,84.4,55.9,85.5z"
				/>
			<linearGradient id="SVGID_8_" gradientUnits="userSpaceOnUse" x1="41.1467" y1="89.2157" x2="43.7649" y2="91.8339">
				<stop  offset="0.3061" style="stop-color:#FFFFFF"/>
				<stop  offset="1" style="stop-color:#BFBFBF"/>
			</linearGradient>
			<path class="st18" d="M44.3,90.5c0,1-0.8,1.9-1.9,1.9c-1,0-1.9-0.8-1.9-1.9c0-1,0.8-1.9,1.9-1.9C43.5,88.7,44.3,89.5,44.3,90.5z"
				/>
			<linearGradient id="SVGID_9_" gradientUnits="userSpaceOnUse" x1="46.9606" y1="89.2157" x2="49.5789" y2="91.8339">
				<stop  offset="0.3061" style="stop-color:#FFFFFF"/>
				<stop  offset="1" style="stop-color:#BFBFBF"/>
			</linearGradient>
			<path class="st19" d="M50.1,90.5c0,1-0.8,1.9-1.9,1.9c-1,0-1.9-0.8-1.9-1.9c0-1,0.8-1.9,1.9-1.9C49.3,88.7,50.1,89.5,50.1,90.5z"
				/>
			<linearGradient id="SVGID_10_" gradientUnits="userSpaceOnUse" x1="52.7746" y1="89.2157" x2="55.3928" y2="91.8339">
				<stop  offset="0.3061" style="stop-color:#FFFFFF"/>
				<stop  offset="1" style="stop-color:#BFBFBF"/>
			</linearGradient>
			<path class="st20" d="M55.9,90.5c0,1-0.8,1.9-1.9,1.9c-1,0-1.9-0.8-1.9-1.9c0-1,0.8-1.9,1.9-1.9C55.1,88.7,55.9,89.5,55.9,90.5z"
				/>
			<linearGradient id="SVGID_11_" gradientUnits="userSpaceOnUse" x1="41.1467" y1="94.2826" x2="43.7649" y2="96.9009">
				<stop  offset="0.3061" style="stop-color:#FFFFFF"/>
				<stop  offset="1" style="stop-color:#BFBFBF"/>
			</linearGradient>
			<path class="st21" d="M44.3,95.6c0,1-0.8,1.9-1.9,1.9c-1,0-1.9-0.8-1.9-1.9c0-1,0.8-1.9,1.9-1.9C43.5,93.7,44.3,94.6,44.3,95.6z"
				/>
			<linearGradient id="SVGID_12_" gradientUnits="userSpaceOnUse" x1="46.9606" y1="94.2826" x2="49.5789" y2="96.9009">
				<stop  offset="0.3061" style="stop-color:#FFFFFF"/>
				<stop  offset="1" style="stop-color:#BFBFBF"/>
			</linearGradient>
			<path class="st22" d="M50.1,95.6c0,1-0.8,1.9-1.9,1.9c-1,0-1.9-0.8-1.9-1.9c0-1,0.8-1.9,1.9-1.9C49.3,93.7,50.1,94.6,50.1,95.6z"
				/>
			<linearGradient id="SVGID_13_" gradientUnits="userSpaceOnUse" x1="52.7746" y1="94.2827" x2="55.3928" y2="96.9009">
				<stop  offset="0.3061" style="stop-color:#FFFFFF"/>
				<stop  offset="1" style="stop-color:#BFBFBF"/>
			</linearGradient>
			<path class="st23" d="M55.9,95.6c0,1-0.8,1.9-1.9,1.9c-1,0-1.9-0.8-1.9-1.9c0-1,0.8-1.9,1.9-1.9C55.1,93.7,55.9,94.6,55.9,95.6z"
				/>
			<linearGradient id="SVGID_14_" gradientUnits="userSpaceOnUse" x1="41.1467" y1="99.3496" x2="43.7649" y2="101.9678">
				<stop  offset="0.3061" style="stop-color:#FFFFFF"/>
				<stop  offset="1" style="stop-color:#BFBFBF"/>
			</linearGradient>
			<path class="st24" d="M44.3,100.7c0,1-0.8,1.9-1.9,1.9c-1,0-1.9-0.8-1.9-1.9c0-1,0.8-1.9,1.9-1.9C43.5,98.8,44.3,99.6,44.3,100.7
				z"/>
			<linearGradient id="SVGID_15_" gradientUnits="userSpaceOnUse" x1="46.9606" y1="99.3496" x2="49.5789" y2="101.9678">
				<stop  offset="0.3061" style="stop-color:#FFFFFF"/>
				<stop  offset="1" style="stop-color:#BFBFBF"/>
			</linearGradient>
			<path class="st25" d="M50.1,100.7c0,1-0.8,1.9-1.9,1.9c-1,0-1.9-0.8-1.9-1.9c0-1,0.8-1.9,1.9-1.9C49.3,98.8,50.1,99.6,50.1,100.7
				z"/>
			<linearGradient id="SVGID_16_" gradientUnits="userSpaceOnUse" x1="52.7746" y1="99.3496" x2="55.3928" y2="101.9678">
				<stop  offset="0.3061" style="stop-color:#FFFFFF"/>
				<stop  offset="1" style="stop-color:#BFBFBF"/>
			</linearGradient>
			<path class="st26" d="M55.9,100.7c0,1-0.8,1.9-1.9,1.9c-1,0-1.9-0.8-1.9-1.9c0-1,0.8-1.9,1.9-1.9C55.1,98.8,55.9,99.6,55.9,100.7
				z"/>
			<linearGradient id="SVGID_17_" gradientUnits="userSpaceOnUse" x1="42.8156" y1="107.4939" x2="45.3331" y2="110.0114">
				<stop  offset="0.3061" style="stop-color:#FFFFFF"/>
				<stop  offset="1" style="stop-color:#BFBFBF"/>
			</linearGradient>
			<path class="st27" d="M47.6,107.7v-2.5c-3.7,0.3-6.7,3.3-7,7H43C43.3,109.9,45.2,108,47.6,107.7z"/>
			<linearGradient id="SVGID_18_" gradientUnits="userSpaceOnUse" x1="40.5559" y1="113.6253" x2="47.5927" y2="120.6621">
				<stop  offset="0.3061" style="stop-color:#FFFFFF"/>
				<stop  offset="1" style="stop-color:#BFBFBF"/>
			</linearGradient>
			<path class="st28" d="M43,113.6h-2.5c0.3,3.7,3.3,6.7,7,7v-2.5C45.2,117.9,43.3,116,43,113.6z"/>
			<linearGradient id="SVGID_19_" gradientUnits="userSpaceOnUse" x1="51.2067" y1="115.8851" x2="53.7241" y2="118.4025">
				<stop  offset="0.3061" style="stop-color:#FFFFFF"/>
				<stop  offset="1" style="stop-color:#BFBFBF"/>
			</linearGradient>
			<path class="st29" d="M48.9,118.2v2.5c3.7-0.3,6.7-3.3,7-7h-2.5C53.2,116,51.3,117.9,48.9,118.2z"/>
			<linearGradient id="SVGID_20_" gradientUnits="userSpaceOnUse" x1="48.9471" y1="105.2343" x2="55.9838" y2="112.271">
				<stop  offset="0.3061" style="stop-color:#FFFFFF"/>
				<stop  offset="1" style="stop-color:#BFBFBF"/>
			</linearGradient>
			<path class="st30" d="M53.5,112.3H56c-0.3-3.7-3.3-6.7-7-7v2.5C51.3,108,53.2,109.9,53.5,112.3z"/>
			<linearGradient id="SVGID_21_" gradientUnits="userSpaceOnUse" x1="45.4671" y1="110.1455" x2="51.0727" y2="115.751">
				<stop  offset="0.3061" style="stop-color:#FFFFFF"/>
				<stop  offset="1" style="stop-color:#BFBFBF"/>
			</linearGradient>
			<path class="st31" d="M52.2,113.6c0-0.2,0.1-0.4,0.1-0.6v0c0-0.2,0-0.4-0.1-0.6c-0.3-1.7-1.6-3-3.3-3.3c-0.2,0-0.4-0.1-0.6-0.1
				c-0.2,0-0.4,0-0.6,0.1c-1.7,0.3-3,1.6-3.3,3.3c0,0.2-0.1,0.4-0.1,0.6v0c0,0.2,0,0.4,0.1,0.6c0.3,1.7,1.6,3,3.3,3.3
				c0.2,0,0.4,0.1,0.6,0.1c0.2,0,0.4,0,0.6-0.1C50.6,116.6,51.9,115.3,52.2,113.6z"/>
			<path class="st32" d="M42.9,125.1c0,0.4-0.3,0.7-0.7,0.7h-2c-0.4,0-0.7-0.3-0.7-0.7l0,0c0-0.4,0.3-0.7,0.7-0.7h2
				C42.6,124.4,42.9,124.7,42.9,125.1L42.9,125.1z"/>
			<path class="st33" d="M47.6,125.1c0,0.4-0.3,0.7-0.7,0.7h-2c-0.4,0-0.7-0.3-0.7-0.7l0,0c0-0.4,0.3-0.7,0.7-0.7h2
				C47.3,124.4,47.6,124.7,47.6,125.1L47.6,125.1z"/>
			<path class="st34" d="M52.3,125.1c0,0.4-0.3,0.7-0.7,0.7h-2c-0.4,0-0.7-0.3-0.7-0.7l0,0c0-0.4,0.3-0.7,0.7-0.7h2
				C52,124.4,52.3,124.7,52.3,125.1L52.3,125.1z"/>
			<path class="st7" d="M56.9,125.1c0,0.4-0.3,0.7-0.7,0.7h-2c-0.4,0-0.7-0.3-0.7-0.7l0,0c0-0.4,0.3-0.7,0.7-0.7h2
				C56.6,124.4,56.9,124.7,56.9,125.1L56.9,125.1z"/>
		</g>
	</g>
</g>
</svg>
