<?xml version="1.0" encoding="utf-8"?>
<!-- Generator: Adobe Illustrator 24.2.1, SVG Export Plug-In . SVG Version: 6.00 Build 0)  -->
<svg version="1.1" id="Layer_1" xmlns="http://www.w3.org/2000/svg" xmlns:xlink="http://www.w3.org/1999/xlink" x="0px" y="0px"
	 viewBox="0 0 210 150" style="enable-background:new 0 0 210 150;" xml:space="preserve">
<style type="text/css">
	.st0{fill:none;}
	.st1{opacity:0.3;fill:url(#SVGID_1_);}
	.st2{opacity:0.25;fill:#009FDB;}
	.st3{opacity:0.3;fill:url(#SVGID_2_);}
	.st4{fill:#1E2024;}
	.st5{fill:#949599;}
	.st6{fill:url(#SVGID_3_);}
	.st7{fill:url(#SVGID_4_);}
	.st8{fill:url(#SVGID_5_);}
	.st9{fill:url(#SVGID_6_);}
	.st10{fill:#EDF0F2;}
	.st11{fill:#E27F4D;}
	.st12{fill:#1A2833;}
	.st13{fill:#E89870;}
	.st14{fill:none;stroke:#FFFFFF;stroke-linecap:round;stroke-linejoin:round;stroke-miterlimit:10;}
	.st15{clip-path:url(#SVGID_8_);}
	.st16{fill:#EBA582;}
	.st17{fill:#F1BFA6;}
	.st18{fill:#681093;}
	.st19{fill:#0D4273;}
	.st20{fill:#BB7230;}
	.st21{fill:#C88D57;}
	.st22{fill:#814916;}
	.st23{fill:#8E5B2D;}
	.st24{fill:url(#SVGID_9_);}
	.st25{fill:#242424;}
	.st26{fill:url(#SVGID_10_);}
	.st27{fill:url(#SVGID_11_);}
	.st28{fill:url(#SVGID_12_);}
	.st29{fill:url(#SVGID_13_);}
	.st30{fill:#4D4D4F;}
	.st31{fill:#CCCCCC;}
</style>
<rect x="-1" y="-1" class="st0" width="210" height="150"/>
<g>
	
		<linearGradient id="SVGID_1_" gradientUnits="userSpaceOnUse" x1="-123.4887" y1="-387.7691" x2="-21.2023" y2="-387.7691" gradientTransform="matrix(-0.105 0.9945 -0.9945 -0.105 -247.0306 98.8403)">
		<stop  offset="0" style="stop-color:#6EB4FA"/>
		<stop  offset="0.997" style="stop-color:#009FDB"/>
	</linearGradient>
	<path class="st1" d="M139.9,104.1c8.9-12,26.7,0.2,39.3-3.6c14.7-4.5,24.5-19.2,23-34.4c-1.6-16-13.9-26.8-29-29.3
		c-10.9-1.8-13.9,1.3-22.8-5.6c-6.1-4.8-6.6-11.9-14.9-15.2c-14.6-5.8-29.8,4.4-32,19.5c-0.8,5.7,3.5,11.8,2.3,17.2
		c-2,9.3-9.8,11.7-14.1,19.5C75,102.9,118.3,133.3,139.9,104.1z"/>
	<path class="st2" d="M179.3,77.2c4.1-28-40.5-49.9-56.2-46.2c-15.6,3.7-8.3,22.2-14.8,37c-6.4,14.7-26.9,26.4-13,40.1
		C115.3,127.7,175,106.8,179.3,77.2z"/>
	
		<linearGradient id="SVGID_2_" gradientUnits="userSpaceOnUse" x1="243.0874" y1="7.6678" x2="266.8183" y2="7.6678" gradientTransform="matrix(0.9725 -0.2327 0.2327 0.9725 -84.3435 71.6933)">
		<stop  offset="0" style="stop-color:#6EB4FA"/>
		<stop  offset="0.997" style="stop-color:#009FDB"/>
	</linearGradient>
	<circle class="st3" cx="165.4" cy="19.8" r="11.9"/>
</g>
<g>
	<path class="st4" d="M157.4,119.1V37.9c0-2.7-2.2-4.9-4.9-4.9H28.7c-2.7,0-4.9,2.2-4.9,4.9v81.3L157.4,119.1z"/>
	<path class="st5" d="M168.4,127.4H12.7c-4.6,0-8.3-3.7-8.3-8.3l0,0h172.2l0,0C176.6,123.7,172.9,127.4,168.4,127.4z"/>
	<linearGradient id="SVGID_3_" gradientUnits="userSpaceOnUse" x1="101.2489" y1="150.657" x2="32.8491" y2="-4.2817">
		<stop  offset="0.2269" style="stop-color:#681093"/>
		<stop  offset="0.997" style="stop-color:#009FDB"/>
	</linearGradient>
	<rect x="29.9" y="39.4" class="st6" width="60.6" height="36.6"/>
	<linearGradient id="SVGID_4_" gradientUnits="userSpaceOnUse" x1="123.9273" y1="54.929" x2="81.9805" y2="93.0968">
		<stop  offset="0" style="stop-color:#2DE6B8"/>
		<stop  offset="1" style="stop-color:#0BBDD0"/>
	</linearGradient>
	<rect x="90.6" y="39.4" class="st7" width="60.6" height="36.6"/>
	<linearGradient id="SVGID_5_" gradientUnits="userSpaceOnUse" x1="45.6713" y1="114.2328" x2="95.1761" y2="46.5888">
		<stop  offset="0" style="stop-color:#FFB000"/>
		<stop  offset="1" style="stop-color:#FF585D"/>
	</linearGradient>
	<rect x="29.9" y="76" class="st8" width="60.6" height="36.6"/>
	<linearGradient id="SVGID_6_" gradientUnits="userSpaceOnUse" x1="74.6775" y1="49.0028" x2="179.3556" y2="151.7914">
		<stop  offset="9.846923e-02" style="stop-color:#0079B1"/>
		<stop  offset="0.5387" style="stop-color:#00C9FF"/>
		<stop  offset="1" style="stop-color:#00C9FF"/>
	</linearGradient>
	<rect x="90.6" y="76" class="st9" width="60.6" height="36.6"/>
	<g>
		<path class="st10" d="M41.5,76h37.4c-0.9-2.1-2.1-3.7-3.4-4.9c-3.2-3.5-8.9-4.7-15.3-4.7s-12.1,1.2-15.3,4.7
			C43.6,72.3,42.5,73.9,41.5,76z"/>
		<g>
			<path class="st11" d="M60.5,72.3L60.5,72.3c2.2,0,4-1.8,4-4v-8h-8v8C56.5,70.6,58.3,72.3,60.5,72.3z"/>
		</g>
		<g>
			<g>
				<path class="st12" d="M68.4,49.8L68.4,49.8c0-4.3-3.5-7.8-7.8-7.8l0,0c-4.3,0-7.8,3.5-7.8,7.8l0,0c0,3.4,2.8,6.2,6.2,6.2h3.2
					C65.6,56,68.4,53.2,68.4,49.8z"/>
			</g>
			<g>
				<path class="st13" d="M60.5,64.2L60.5,64.2c3.9,0,7.1-3.2,7.1-7.1v-6.2c0-3.9-3.2-7.1-7.1-7.1l0,0c-3.9,0-7.1,3.2-7.1,7.1v6.2
					C53.4,61,56.6,64.2,60.5,64.2z"/>
			</g>
			<path class="st12" d="M54.1,56v-4.9c0-3.5,2.9-6.4,6.4-6.4l0,0c3.5,0,6.4,2.9,6.4,6.4V56h1.4v-5.2c0-4-3.8-7.8-7.8-7.8l0,0
				c-4,0-7.8,3.8-7.8,7.8V56H54.1z"/>
			<g>
				<ellipse class="st13" cx="53.7" cy="56.8" rx="1.9" ry="2.5"/>
				<ellipse class="st13" cx="67.4" cy="56.8" rx="1.9" ry="2.5"/>
			</g>
			<path class="st12" d="M68,50.8c0-3.1-3.3-7.1-7.4-7.1c-4.1,0-7.4,3.9-7.4,7.1H68z"/>
			<g>
				<g>
					<path class="st14" d="M54.6,55.7c0-1.4,1.1-2.6,2.6-2.6c1.4,0,2.6,1.1,2.6,2.6c0,1.4-1.1,2.6-2.6,2.6
						C55.7,58.3,54.6,57.1,54.6,55.7z"/>
					<path class="st14" d="M61.4,55.7c0-1.4,1.1-2.6,2.6-2.6c1.4,0,2.6,1.1,2.6,2.6c0,1.4-1.1,2.6-2.6,2.6
						C62.6,58.3,61.4,57.1,61.4,55.7z"/>
					<line class="st14" x1="59.7" y1="55" x2="61.4" y2="55"/>
				</g>
				<path class="st10" d="M58.6,60.8c0,0,0.2,0.7,1.1,0.7h1.7c0.8,0,1.1-0.7,1.1-0.7H58.6z"/>
			</g>
			<path class="st12" d="M56.4,39.4c0.1,2.2,1.9,3.9,4.1,3.9c2.2,0,4-1.7,4.1-3.9H56.4z"/>
		</g>
	</g>
	<rect x="29.9" y="39.4" class="st0" width="60.6" height="36.6"/>
	<g>
		<defs>
			<rect id="SVGID_7_" x="90.6" y="76" width="60.6" height="36.6"/>
		</defs>
		<clipPath id="SVGID_8_">
			<use xlink:href="#SVGID_7_"  style="overflow:visible;"/>
		</clipPath>
		<g class="st15">
			<path class="st10" d="M102.1,112.7h37.5c-0.9-2.2-2.1-3.8-3.4-5.1c-3.2-3.5-8.9-4.7-15.3-4.7c-6.4,0-12.1,1.2-15.3,4.7
				C104.2,108.8,103,110.5,102.1,112.7z"/>
			<path class="st16" d="M120.9,110.1L120.9,110.1c2.6,0,4.8-2.1,4.8-4.8v-8.9h-9.5v8.9C116.1,108,118.2,110.1,120.9,110.1z"/>
			<g>
				<g>
					<path class="st17" d="M120.9,102.5L120.9,102.5c4,0,7.2-3.2,7.2-7.2V89c0-4-3.2-6-7.2-6h0c-4,0-7.2,2-7.2,6v6.3
						C113.7,99.3,116.9,102.5,120.9,102.5z"/>
				</g>
				<path class="st10" d="M126.6,83c0-0.2,0.1-0.3,0-0.6c-0.1-1-0.7-1.9-1.6-2.3c-0.6-0.3-1.2-0.3-1.8-0.2c-0.5-0.9-1.4-1.5-2.5-1.5
					c-1.1,0-2,0.6-2.5,1.5c-0.1,0-0.2,0-0.3,0c-1.6,0-2.8,1.3-2.8,2.8c0,0.2,0,0.4,0.1,0.5c-1.4,1.1-2.3,2.6-2.3,4.4v4
					c0,0.4,0.3,0.7,0.7,0.7l0,0c0.4,0,0.7-0.3,0.7-0.7V89c0-2.6,1.5-4.2,3.7-4.9c0.2,1.3,1.4,2.3,2.8,2.3c1.4,0,2.5-1,2.8-2.3
					c2.2,0.7,3.7,2.3,3.7,4.9v2.5c0,0.4,0.3,0.7,0.7,0.7l0,0c0.4,0,0.7-0.3,0.7-0.7v-4C128.8,85.5,128,84,126.6,83z"/>
				<g>
					<path class="st17" d="M115.9,93.2c0-1.4-0.9-2.5-1.9-2.5s-1.9,1.1-1.9,2.5s0.9,2.5,1.9,2.5S115.9,94.6,115.9,93.2z"/>
					<path class="st17" d="M129.8,93.2c0-1.4-0.9-2.5-1.9-2.5c-1.1,0-1.9,1.1-1.9,2.5s0.9,2.5,1.9,2.5
						C128.9,95.7,129.8,94.6,129.8,93.2z"/>
				</g>
				<g>
					<g>
						<g>
							<path class="st18" d="M124.4,96.3c-1.7,0-3.1-1.4-3.1-3.1c0-1.7,1.4-3.1,3.1-3.1s3.1,1.4,3.1,3.1
								C127.5,94.9,126.1,96.3,124.4,96.3z M124.4,91.1c-1.1,0-2.1,0.9-2.1,2.1s0.9,2.1,2.1,2.1s2.1-0.9,2.1-2.1
								S125.5,91.1,124.4,91.1z"/>
						</g>
						<g>
							<path class="st18" d="M117.4,96.3c-1.7,0-3.1-1.4-3.1-3.1c0-1.7,1.4-3.1,3.1-3.1c1.7,0,3.1,1.4,3.1,3.1
								C120.5,94.9,119.1,96.3,117.4,96.3z M117.4,91.1c-1.1,0-2.1,0.9-2.1,2.1s0.9,2.1,2.1,2.1s2.1-0.9,2.1-2.1
								S118.5,91.1,117.4,91.1z"/>
						</g>
						<g>
							<path class="st18" d="M121.7,93H120c-0.3,0-0.5-0.2-0.5-0.5c0-0.3,0.2-0.5,0.5-0.5h1.7c0.3,0,0.5,0.2,0.5,0.5
								C122.2,92.7,122,93,121.7,93z"/>
						</g>
					</g>
					<path class="st10" d="M122.8,98.3c0,0-0.3,0.7-1.1,0.7H120c-0.9,0-1.1-0.7-1.1-0.7H122.8z"/>
				</g>
			</g>
			<g>
				<g>
					<g>
						<g>
							<path class="st0" d="M120.9,79.3L120.9,79.3C120.9,79.3,120.8,79.3,120.9,79.3C120.8,79.3,120.9,79.3,120.9,79.3
								C120.9,79.3,120.9,79.3,120.9,79.3z"/>
						</g>
					</g>
				</g>
			</g>
		</g>
	</g>
	<g>
		<path class="st19" d="M102.1,76h37.5c-0.9-2.2-2.1-3.8-3.4-5.1c-3.2-3.5-8.9-4.7-15.3-4.7c-6.4,0-12.1,1.2-15.3,4.7
			C104.2,72.2,103,73.9,102.1,76z"/>
		<path class="st20" d="M120.9,73.5L120.9,73.5c2.6,0,4.8-2.1,4.8-4.8v-8.9h-9.5v8.9C116.1,71.4,118.2,73.5,120.9,73.5z"/>
		<g>
			<g>
				<path class="st21" d="M120.9,65.9L120.9,65.9c4,0,7.2-3.2,7.2-7.2v-6.3c0-4-3.2-6-7.2-6l0,0c-4,0-7.2,2-7.2,6v6.3
					C113.6,62.7,116.9,65.9,120.9,65.9z"/>
			</g>
			<g>
				<path class="st10" d="M122.8,61.7c0,0-0.3,0.7-1.1,0.7H120c-0.9,0-1.1-0.7-1.1-0.7H122.8z"/>
			</g>
			<path class="st12" d="M126.6,46.4c0-0.1,0-0.2,0-0.3c0-1.6-1.3-2.8-2.8-2.8c-0.2,0-0.4,0-0.6,0.1c-0.5-0.9-1.4-1.5-2.5-1.5
				c-1.1,0-2,0.6-2.5,1.5c-0.1,0-0.2,0-0.3,0c-1.6,0-2.8,1.3-2.8,2.8c0,0.1,0,0.3,0,0.4c-1.4,1.1-2.3,2.5-2.3,4.4v4.7
				c0,0.4,0.3,0.7,0.7,0.7l0,0c0.4,0,0.7-0.3,0.7-0.7v-3.2c0-1.6,0.6-2.9,1.6-3.8c1,0.8,2.8,1.3,4.9,1.3c2.1,0,3.9-0.5,4.9-1.3
				c1,0.9,1.6,2.1,1.6,3.8v3.2c0,0.4,0.3,0.7,0.7,0.7l0,0c0.4,0,0.7-0.3,0.7-0.7v-4.7C128.8,48.9,127.9,47.4,126.6,46.4z"/>
			<g>
				<path class="st21" d="M115.8,56.6c0-1.4-0.9-2.5-1.9-2.5c-1.1,0-1.9,1.1-1.9,2.5s0.9,2.5,1.9,2.5C115,59.1,115.8,58,115.8,56.6z
					"/>
				<path class="st21" d="M129.8,56.6c0-1.4-0.9-2.5-1.9-2.5c-1.1,0-1.9,1.1-1.9,2.5s0.9,2.5,1.9,2.5
					C128.9,59.1,129.8,58,129.8,56.6z"/>
			</g>
		</g>
	</g>
	<rect x="90.6" y="39.4" class="st0" width="60.6" height="36.6"/>
	<g>
		<path class="st10" d="M41.5,112.7h37.4c-0.9-2.1-2.1-3.7-3.3-4.9c-3.2-3.5-8.9-4.7-15.3-4.7c-6.4,0-12.1,1.2-15.3,4.7
			C43.6,109,42.5,110.6,41.5,112.7z"/>
		<path class="st12" d="M42.3,86.4c0,9.9,8,18,18,18s18-8,18-18c0-3.9-1.2-7.5-3.3-10.4H45.6C43.5,79,42.3,82.6,42.3,86.4z"/>
		<g>
			<path class="st22" d="M60.2,109L60.2,109c2.2,0,4-1.8,4-4v-8h-8v8C56.2,107.2,58,109,60.2,109z"/>
		</g>
		<g>
			<g>
				<path class="st23" d="M60.2,100.8L60.2,100.8c3.9,0,7.1-3.2,7.1-7.1v-6.2c0-3.9-3.2-7.1-7.1-7.1l0,0c-3.9,0-7.1,3.2-7.1,7.1v6.2
					C53.1,97.7,56.3,100.8,60.2,100.8z"/>
			</g>
			<path class="st12" d="M69.3,81.9c-1.6-3.4-7.5-5.8-12.4-3.6c-4.9,2.3-6.8,8.4-5.2,11.8L69.3,81.9z"/>
			<g>
				<ellipse class="st23" cx="53.4" cy="93.4" rx="1.9" ry="2.5"/>
				<ellipse class="st23" cx="67.1" cy="93.4" rx="1.9" ry="2.5"/>
				<g>
					<path class="st17" d="M68.8,97.2c0,1.1-0.3,2-0.6,2c-0.3,0-0.6-0.9-0.6-2s0.3-2,0.6-2C68.5,95.1,68.8,96,68.8,97.2z"/>
					<path class="st17" d="M52.9,97.2c0,1.1-0.3,2-0.6,2s-0.6-0.9-0.6-2s0.3-2,0.6-2S52.9,96,52.9,97.2z"/>
				</g>
			</g>
			<g>
				<path class="st10" d="M58.3,97.4c0,0,0.2,0.7,1.1,0.7h1.7c0.8,0,1.1-0.7,1.1-0.7H58.3z"/>
			</g>
		</g>
	</g>
	<rect x="29.9" y="76" class="st0" width="60.6" height="36.6"/>
	<path class="st10" d="M106.2,44.8H94.5c-0.7,0-1.2-0.5-1.2-1.2l0,0c0-0.7,0.5-1.2,1.2-1.2h11.7c0.7,0,1.2,0.5,1.2,1.2l0,0
		C107.4,44.3,106.9,44.8,106.2,44.8z"/>
	<path class="st10" d="M45.3,44.8H33.6c-0.7,0-1.2-0.5-1.2-1.2l0,0c0-0.7,0.5-1.2,1.2-1.2h11.7c0.7,0,1.2,0.5,1.2,1.2l0,0
		C46.5,44.3,45.9,44.8,45.3,44.8z"/>
	<path class="st10" d="M106.2,81.8H94.5c-0.7,0-1.2-0.5-1.2-1.2l0,0c0-0.7,0.5-1.2,1.2-1.2h11.7c0.7,0,1.2,0.5,1.2,1.2l0,0
		C107.4,81.2,106.9,81.8,106.2,81.8z"/>
	<path class="st10" d="M45.3,81.8H33.6c-0.7,0-1.2-0.5-1.2-1.2l0,0c0-0.7,0.5-1.2,1.2-1.2h11.7c0.7,0,1.2,0.5,1.2,1.2l0,0
		C46.5,81.2,45.9,81.8,45.3,81.8z"/>
</g>
<g>
	<radialGradient id="SVGID_9_" cx="159.8892" cy="129.2715" r="32.031" gradientUnits="userSpaceOnUse">
		<stop  offset="0" style="stop-color:#242424"/>
		<stop  offset="1" style="stop-color:#3F3F3F"/>
	</radialGradient>
	<path class="st24" d="M194.3,114.7c-0.8-2.9-1.6-5.6-2.4-7.9c-0.8-2.3-1.5-4.1-2.1-5.3c-0.5-1.1-1-2.2-1.5-3.4
		c-0.4-0.8-0.9-1.7-1.5-2.5c-0.9-1.2-2.3-2.4-4-3c-1.8-0.7-3.8-1-6.5-1c-1.2,0-2.2,0.3-3.3,0.7c-1.6,0.6-3.3,1.3-4.9,1.9
		c-1.7,0.6-3.4,1-4.8,1c-1.3,0-2.3,0-3.4,0c-1.1,0-2.2,0-3.4,0c-2.3,0-4.6-0.8-6.7-1.6c-1.1-0.4-2.1-0.9-3.1-1.3
		c-1-0.4-2-0.7-3.2-0.7c-2.4,0-4.3,0.2-5.9,0.8c-1.2,0.4-2.3,1-3.1,1.7c-1.3,1.1-2.1,2.4-2.8,3.7c-0.6,1.3-1.1,2.5-1.7,3.8
		c-0.6,1.2-1.3,3-2.1,5.3c-1.2,3.4-2.4,7.8-3.4,12.3c-1,4.5-1.7,9.2-1.7,13.2c0,2.1,0.2,4,0.7,5.7c0.3,0.9,0.6,1.7,1.2,2.4
		c0.5,0.7,1.2,1.4,2.1,1.9c1.1,0.7,2.4,1,3.7,1c1.3,0,2.4-0.3,3.5-0.8c1.9-0.8,3.6-2.1,5.4-3.5c2.7-2.1,5.5-4.5,8.8-6.3
		c3.3-1.9,7.1-3.2,11.9-3.2h0c3.6,0,6.7,0.8,9.4,2c4.1,1.8,7.5,4.5,10.5,7c1.5,1.2,3,2.4,4.5,3.3c1.5,0.9,3.2,1.6,5.1,1.6
		c0,0,0,0,0,0c1.2,0,2.5-0.3,3.6-1c0.8-0.5,1.5-1.1,2.1-1.9c0.8-1.1,1.2-2.4,1.5-3.8c0.3-1.4,0.4-2.8,0.4-4.4
		C197.1,127.1,195.8,120.6,194.3,114.7z"/>
	<g>
		<path class="st25" d="M156.6,129.5c-4.7,0-8.5,1.3-11.9,3.2c-3.3,1.9-6.2,4.3-8.8,6.3c-1.8,1.4-3.5,2.7-5.4,3.5
			c-0.7,0.3-1.4,0.5-2.1,0.7c0.6,0.2,1.2,0.2,1.8,0.2c1.3,0,2.4-0.3,3.5-0.8c1.9-0.8,3.6-2.1,5.4-3.5c2.7-2.1,5.5-4.5,8.8-6.3
			c3.1-1.7,6.7-3,11-3.2C158.2,129.6,157.4,129.5,156.6,129.5L156.6,129.5z"/>
		<path class="st25" d="M146.5,93.5c2.1,0.9,4.4,1.6,6.7,1.6c0.6,0,1.2,0,1.8,0c-1.8-0.2-3.5-0.8-5.2-1.5c-1.1-0.4-2.1-0.9-3.1-1.3
			c-1-0.4-2-0.7-3.2-0.7c-0.7,0-1.3,0-1.9,0.1c0.6,0.1,1.2,0.3,1.8,0.6C144.4,92.6,145.4,93.1,146.5,93.5z"/>
		<path class="st25" d="M194.3,114.7c-0.8-2.9-1.6-5.6-2.4-7.9c-0.8-2.3-1.5-4.1-2.1-5.3c-0.5-1.1-1-2.2-1.5-3.4
			c-0.4-0.8-0.9-1.7-1.5-2.5c-0.9-1.2-2.3-2.4-4-3c-1.8-0.7-3.8-1-6.5-1c-0.2,0-0.4,0-0.5,0c1.4,0.1,2.6,0.4,3.7,0.8
			c1.8,0.7,3.1,1.8,4,3c0.6,0.8,1.1,1.7,1.5,2.5c0.5,1.1,1,2.3,1.5,3.4c0.6,1.2,1.3,3,2.1,5.3c0.8,2.3,1.6,5,2.4,7.9
			c1.5,5.8,2.8,12.3,2.8,17.7c0,1.6-0.1,3-0.4,4.4c-0.3,1.4-0.7,2.6-1.5,3.8c-0.5,0.7-1.2,1.4-2.1,1.9c-0.7,0.4-1.5,0.7-2.3,0.8
			c0.6,0.1,1.2,0.2,1.9,0.2c0,0,0,0,0,0c1.2,0,2.5-0.3,3.6-1c0.8-0.5,1.5-1.1,2.1-1.9c0.8-1.1,1.2-2.4,1.5-3.8
			c0.3-1.4,0.4-2.8,0.4-4.4C197.1,127.1,195.8,120.6,194.3,114.7z"/>
	</g>
	<g>
		<linearGradient id="SVGID_10_" gradientUnits="userSpaceOnUse" x1="181.0346" y1="123.5687" x2="172.3961" y2="111.8684">
			<stop  offset="9.846923e-02" style="stop-color:#0079B1"/>
			<stop  offset="0.5387" style="stop-color:#00C9FF"/>
			<stop  offset="1" style="stop-color:#00C9FF"/>
		</linearGradient>
		<path class="st26" d="M175.8,112.8C175.8,112.8,175.8,112.8,175.8,112.8c-2,0-3.6,1.6-3.6,3.6c0,2,1.6,3.6,3.6,3.6c0,0,0,0,0,0
			c2,0,3.6-1.6,3.6-3.6C179.4,114.5,177.8,112.8,175.8,112.8z"/>
		<linearGradient id="SVGID_11_" gradientUnits="userSpaceOnUse" x1="175.3791" y1="102.0171" x2="183.4708" y2="111.8584">
			<stop  offset="0" style="stop-color:#91DC00"/>
			<stop  offset="0.6197" style="stop-color:#0BBDD0"/>
		</linearGradient>
		<path class="st27" d="M175.8,98.9C175.8,98.9,175.8,98.9,175.8,98.9c-2,0-3.6,1.6-3.6,3.6c0,2,1.6,3.6,3.6,3.6c0,0,0,0,0,0
			c2,0,3.6-1.6,3.6-3.6C179.4,100.5,177.8,98.9,175.8,98.9z"/>
	</g>
	<g>
		<linearGradient id="SVGID_12_" gradientUnits="userSpaceOnUse" x1="166.9093" y1="106.8874" x2="172.5954" y2="114.6511">
			<stop  offset="0" style="stop-color:#FF585D"/>
			<stop  offset="1" style="stop-color:#F8003C"/>
		</linearGradient>
		<path class="st28" d="M168.8,105.9C168.8,105.9,168.8,105.9,168.8,105.9c-2,0-3.6,1.6-3.6,3.6c0,2,1.6,3.6,3.6,3.6c0,0,0,0,0,0
			c2,0,3.6-1.6,3.6-3.6C172.4,107.5,170.8,105.9,168.8,105.9z"/>
		<linearGradient id="SVGID_13_" gradientUnits="userSpaceOnUse" x1="178.952" y1="104.0471" x2="188.1372" y2="117.1688">
			<stop  offset="0" style="stop-color:#FFB000"/>
			<stop  offset="1" style="stop-color:#FF585D"/>
		</linearGradient>
		<path class="st29" d="M182.8,105.9C182.7,105.9,182.7,105.9,182.8,105.9c-2,0-3.6,1.6-3.6,3.6c0,2,1.6,3.6,3.6,3.6c0,0,0,0,0,0
			c2,0,3.6-1.6,3.6-3.6C186.4,107.5,184.8,105.9,182.8,105.9z"/>
	</g>
	<g>
		<path class="st30" d="M145.4,101.8c-0.5-0.1-1.1-0.2-1.6-0.2c0,0,0,0,0,0c-4.5,0-8.1,3.6-8.1,8.1s3.6,8.1,8.1,8.1c0,0,0,0,0,0
			c0.6,0,1.1-0.1,1.6-0.2c3.7-0.8,6.5-4,6.5-8C151.9,105.8,149.1,102.6,145.4,101.8z"/>
		<path class="st31" d="M150.6,107.8c0-0.1-0.1-0.1-0.1-0.2c-0.1-0.1-0.3-0.2-0.4-0.2h0h-4v-4c0-0.2-0.1-0.3-0.2-0.4
			c-0.1-0.1-0.3-0.2-0.4-0.2h0h-1.6h-1.6c-0.2,0-0.3,0.1-0.4,0.2c-0.1,0.1-0.2,0.3-0.2,0.4v4h-4c-0.2,0-0.3,0.1-0.4,0.2
			c-0.1,0.1-0.2,0.3-0.2,0.4v3.2c0,0.2,0.1,0.3,0.2,0.4c0.1,0.1,0.3,0.2,0.4,0.2h4l0,4c0,0.2,0.1,0.3,0.2,0.4
			c0.1,0.1,0.3,0.2,0.4,0.2h1.6h1.6h0c0.2,0,0.3-0.1,0.4-0.2c0.1-0.1,0.2-0.3,0.2-0.4v-4h4h0c0.2,0,0.3-0.1,0.4-0.2
			c0.1-0.1,0.1-0.1,0.1-0.2c0-0.1,0-0.2,0-0.2V108C150.6,108,150.6,107.9,150.6,107.8z"/>
		<path class="st30" d="M143.8,108.4C143.8,108.4,143.7,108.4,143.8,108.4c-0.8,0-1.4,0.6-1.4,1.4c0,0.8,0.6,1.4,1.4,1.4
			c0,0,0,0,0,0c0.8,0,1.4-0.6,1.4-1.4C145.1,109,144.5,108.4,143.8,108.4z"/>
	</g>
</g>
</svg>
