<svg id="Layer_1" data-name="Layer 1" xmlns="http://www.w3.org/2000/svg" xmlns:xlink="http://www.w3.org/1999/xlink" viewBox="0 0 210 150"><defs><style>.cls-1{fill:#91dc00;opacity:0.3;}.cls-2{fill:url(#linear-gradient);}.cls-3{fill:url(#linear-gradient-2);}.cls-4{fill:#0079b1;}.cls-5{fill:#fef2dd;}.cls-6{fill:#6c6c6d;}.cls-7{fill:none;}</style><linearGradient id="linear-gradient" x1="124.4" y1="155.36" x2="86.04" y2="40.62" gradientUnits="userSpaceOnUse"><stop offset="0" stop-color="#0079b1"/><stop offset="0.5" stop-color="#009fdb"/><stop offset="1" stop-color="#00c9ff"/></linearGradient><linearGradient id="linear-gradient-2" x1="162.63" y1="91.45" x2="256.56" y2="59.41" xlink:href="#linear-gradient"/></defs><circle class="cls-1" cx="143" cy="38.52" r="13.27"/><path class="cls-1" d="M64.88,32.81c-6.3,15.36-31.38,9.13-43,21.51a36.72,36.72,0,0,0-3.12,45.82c13.42,19,28.19,12.74,46.93,11,17-1.58,17.63,9.28,32.25,15.29a32.41,32.41,0,0,0,40.55-14.22c10.82-19.8-1.1-30.87-13.06-43.94-13-14.19-1.5-33.39-17.36-46.37C94.06,10.4,71.85,15.81,64.88,32.81Z"/><path class="cls-1" d="M102.43,95.79c16.84-18.6-5.18-56.69-18.49-61.65S66.85,46.38,54.86,54,22.05,60.19,25.49,77.1C30.44,101.39,84.62,115.47,102.43,95.79Z"/><polygon class="cls-2" points="49.98 48.7 49.98 127.08 63.63 127.08 153.7 127.08 153.7 48.7 49.98 48.7"/><rect class="cls-3" x="153.7" y="48.7" width="38.69" height="78.37"/><path class="cls-4" d="M153.7,49.56H50a.86.86,0,0,1,0-1.71H153.7a.86.86,0,1,1,0,1.71Z"/><path class="cls-4" d="M192.4,49.56H153.7a.86.86,0,0,1,0-1.71h38.7a.86.86,0,1,1,0,1.71Z"/><rect class="cls-5" x="86.6" y="51.72" width="27.38" height="53.65" transform="translate(10.17 168.59) rotate(-83.05)"/><path class="cls-6" d="M107,74.44h-.14L85.11,71.78a1.14,1.14,0,0,1,.28-2.26l21.74,2.65a1.14,1.14,0,0,1-.14,2.27Z"/><path class="cls-6" d="M119.1,83.64H119L84.18,79.39a1.13,1.13,0,0,1-1-1.26,1.14,1.14,0,0,1,1.27-1l34.78,4.24a1.15,1.15,0,0,1,1,1.27A1.16,1.16,0,0,1,119.1,83.64Z"/><path class="cls-6" d="M105.4,87.48h-.14L83.52,84.83a1.14,1.14,0,0,1-1-1.27,1.12,1.12,0,0,1,1.27-1l21.74,2.65a1.13,1.13,0,0,1-.14,2.26Z"/><rect class="cls-7" width="210" height="150"/></svg>