<svg width="32" height="32" viewBox="0 0 32 32" fill="none" xmlns="http://www.w3.org/2000/svg">
<rect width="32" height="32" fill="white"/>
<path fill-rule="evenodd" clip-rule="evenodd" d="M18.2627 23.7637C18.2627 25.3371 16.9866 26.6132 15.4132 26.6132C13.8393 26.6132 12.5637 25.3371 12.5637 23.7637C12.5637 22.1903 13.8393 20.9142 15.4132 20.9142C16.9866 20.9142 18.2627 22.1903 18.2627 23.7637Z" fill="#99AF21"/>
<path fill-rule="evenodd" clip-rule="evenodd" d="M15.4224 23.7637C15.4224 23.7637 13.9977 22.339 13.4073 21.7486C13.9231 21.2329 14.6355 20.9142 15.4224 20.9142C16.2089 20.9142 16.9213 21.2329 17.437 21.7486C16.8472 22.339 15.4224 23.7637 15.4224 23.7637Z" fill="#99AF21"/>
<mask id="mask0" mask-type="alpha" maskUnits="userSpaceOnUse" x="3" y="6" width="25" height="8">
<path d="M3.33337 6.66666H27.3651V13.0176H3.33337V6.66666Z" fill="white"/>
</mask>
<g mask="url(#mask0)">
<path fill-rule="evenodd" clip-rule="evenodd" d="M25.8269 12.6955L27.3651 11.5353C26.9159 11.096 26.4424 10.6762 25.9504 10.2915C22.9204 7.91975 19.2802 6.66644 15.4229 6.66644C10.8561 6.66644 6.56281 8.44501 3.33337 11.6744L4.67644 13.0175C7.54732 10.1471 11.3633 8.56611 15.4229 8.56611C18.8513 8.56611 22.0869 9.67979 24.7802 11.7875C25.1421 12.0705 25.4897 12.3783 25.8269 12.6955Z" fill="#99AF21"/>
</g>
<path fill-rule="evenodd" clip-rule="evenodd" d="M21.9557 15.6147L23.513 14.4402C23.1022 14.0836 22.6695 13.7506 22.2165 13.451C20.1985 12.1198 17.8496 11.416 15.4228 11.416C12.1249 11.416 9.0242 12.7001 6.69141 15.0325L8.03495 16.3755C10.0087 14.4022 12.6321 13.3156 15.4228 13.3156C17.4763 13.3156 19.4638 13.9107 21.1697 15.0363C21.4409 15.2158 21.7021 15.411 21.9557 15.6147Z" fill="#99AF21"/>
<path fill-rule="evenodd" clip-rule="evenodd" d="M19.5786 17.4077C19.3392 17.251 19.0946 17.1033 18.8386 16.9741C17.7724 16.4375 16.6236 16.1649 15.423 16.1649C13.3937 16.1649 11.485 16.9556 10.0503 18.3908L11.3934 19.7339C12.4695 18.6573 13.9009 18.0646 15.423 18.0646C16.305 18.0646 17.1484 18.2631 17.9325 18.6487L19.5786 17.4077Z" fill="#99AF21"/>
<mask id="mask1" mask-type="alpha" maskUnits="userSpaceOnUse" x="14" y="11" width="17" height="14">
<path d="M14.6379 11.6751H30.0002V24.8284H14.6379V11.6751Z" fill="white"/>
</mask>
<g mask="url(#mask1)">
<path fill-rule="evenodd" clip-rule="evenodd" d="M16.1619 24.8284L14.6379 23.0081L29.7788 11.7079C29.936 11.602 30.0808 11.7753 29.9488 11.9116L16.1619 24.8284Z" fill="#99AF21"/>
</g>
</svg>
