<svg width="32" height="32" viewBox="0 0 32 32" fill="none" xmlns="http://www.w3.org/2000/svg">
<rect width="32" height="32" fill="white"/>
<path fill-rule="evenodd" clip-rule="evenodd" d="M6.25309 4.47522C4.81427 9.05122 5.98149 14.3096 9.29862 18.1978C12.1742 21.5683 16.3199 23.5049 20.4639 23.5049C21.1012 23.5049 21.7386 23.4591 22.3705 23.3657L23.8598 23.1454L6.70465 3.03931L6.25309 4.47522Z" fill="#99AF21"/>
<mask id="mask0" mask-type="alpha" maskUnits="userSpaceOnUse" x="11" y="2" width="17" height="17">
<path d="M11.3265 2.46155H27.4165V18.0936H11.3265V2.46155Z" fill="white"/>
</mask>
<g mask="url(#mask0)">
<path fill-rule="evenodd" clip-rule="evenodd" d="M26.9633 3.12622C26.2842 2.33058 25.0887 2.2356 24.2931 2.91461C23.7424 3.38491 23.5357 4.10099 23.6807 4.76209L11.3265 6.55541L12.3834 7.79429L22.0811 6.38629L15.7738 11.7679L16.6678 12.816L22.9946 7.41854L20.1103 16.8505L21.1709 18.0935L24.8342 6.11177C25.4636 6.35754 26.2018 6.26631 26.7516 5.79684C27.5477 5.11784 27.6427 3.92229 26.9633 3.12622Z" fill="#99AF21"/>
</g>
<mask id="mask1" mask-type="alpha" maskUnits="userSpaceOnUse" x="4" y="19" width="15" height="11">
<path d="M4.92297 19.1027H18.5368V29.5385H4.92297V19.1027Z" fill="white"/>
</mask>
<g mask="url(#mask1)">
<path fill-rule="evenodd" clip-rule="evenodd" d="M15.5392 24.4135L16.1016 27.5061H7.86644L9.57229 20.9181C9.02075 20.4187 8.49255 19.8838 7.99933 19.306C7.94309 19.2398 7.89227 19.1698 7.83687 19.1027L4.92297 29.5386H18.5368L17.7054 24.9647C16.9714 24.833 16.2482 24.6477 15.5392 24.4135Z" fill="#99AF21"/>
</g>
</svg>
