<?xml version="1.0" encoding="utf-8"?>
<!-- Generator: Adobe Illustrator 24.1.0, SVG Export Plug-In . SVG Version: 6.00 Build 0)  -->
<svg version="1.1" id="Layer_1" xmlns="http://www.w3.org/2000/svg" xmlns:xlink="http://www.w3.org/1999/xlink" x="0px" y="0px"
	 viewBox="0 0 24 24" style="enable-background:new 0 0 24 24;" xml:space="preserve">
<style type="text/css">
	.st0{fill-rule:evenodd;clip-rule:evenodd;}
	.st1{fill-rule:evenodd;clip-rule:evenodd;fill:none;}
</style>
<path class="st0" d="M18.8,7v8.1c0,0.3-0.2,0.5-0.5,0.5H6.8c-0.1,0-0.2-0.1-0.2-0.2c0-0.1,0.1-0.2,0.2-0.2h11.5c0,0,0.1,0,0.1-0.1
	c0,0,0,0,0,0V7c0,0,0-0.1-0.1-0.1c0,0,0,0,0,0H5.7c0,0-0.1,0-0.1,0.1c0,0,0,0,0,0v5.4c0,0.1-0.1,0.2-0.2,0.2c-0.1,0-0.2-0.1-0.2-0.2
	V7c0-0.3,0.2-0.5,0.5-0.5h12.6C18.6,6.5,18.8,6.7,18.8,7z M19.6,16.2c0,0.2-0.2,0.3-0.3,0.3H4.8c-0.2,0-0.3-0.1-0.3-0.3c0,0,0,0,0,0
	V6c0-0.2,0.2-0.3,0.3-0.3h14.5c0.2,0,0.3,0.2,0.3,0.3L19.6,16.2L19.6,16.2z M19.2,5.3H4.8C4.4,5.3,4,5.6,4,6v10.2
	C4,16.6,4.3,17,4.8,17h7v1.3H8.7c-0.1,0-0.2,0.1-0.2,0.2c0,0.1,0.1,0.2,0.2,0.2h6.6c0.1,0,0.2-0.1,0.2-0.2c0-0.1-0.1-0.2-0.2-0.2
	c0,0,0,0,0,0h-3.1V17h7c0.4,0,0.8-0.3,0.8-0.8V6C20,5.6,19.6,5.3,19.2,5.3L19.2,5.3z"/>
<rect class="st1" width="24" height="24"/>
</svg>
