<?xml version="1.0" encoding="UTF-8"?>
<svg width="91px" height="45px" viewBox="0 0 91 45" version="1.1" xmlns="http://www.w3.org/2000/svg" xmlns:xlink="http://www.w3.org/1999/xlink">
    <!-- Generator: Sketch 64 (93537) - https://sketch.com -->
    <title>verisign-secured</title>
    <desc>Created with Sketch.</desc>
    <g id="Hi-fidelity-Design" stroke="none" stroke-width="1" fill="none" fill-rule="evenodd">
        <g id="cart-5a-checkout-desktop-01" transform="translate(-677.000000, -624.000000)" fill-rule="nonzero">
            <g id="Group-11" transform="translate(134.000000, 257.000000)">
                <g id="Group-10" transform="translate(24.000000, 232.000000)">
                    <g id="Group-8" transform="translate(20.000000, 24.000000)">
                        <g id="verisign-secured" transform="translate(499.000000, 111.000000)">
                            <path d="M31.6114221,12.2352056 L74.4079039,12.2352056 C78.7072523,12.2413305 82.2828975,13.6092155 85.3032613,16.4144005 C88.2746296,19.1889613 89.7281605,22.4933223 89.7740937,26.5255206 L90.3865365,26.5204165 L89.7740937,26.5142917 C89.7281605,30.4638044 88.2776918,33.7314162 85.3012198,36.548851 L85.3032613,36.5468094 C82.2808561,39.3540361 78.7021487,40.759691 74.4079039,40.7647951 L31.6124428,40.7647951 C31.2735578,40.7647951 31,41.0404137 31,41.3823849 C31,41.7233354 31.2735578,41.9999874 31.6124428,41.9999874 L74.4079039,41.9999874 C78.9726442,42.0050788 82.9096307,40.4636562 86.1361835,37.4532884 L86.1382249,37.450226 C89.3310934,34.4510871 90.9663156,30.7843386 91,26.5255206 L91,26.5142917 C90.9663156,22.1799337 89.3341556,18.4713321 86.1361835,15.5069007 C82.9065684,12.4955121 78.9675405,10.9949218 74.4079039,11.0000129 L31.6124428,11.0000129 C31.2735578,11.0000129 31,11.2766653 31,11.6176158 C31,11.9585662 31.2735578,12.2352056 31.6124428,12.2352056 L31.6114221,12.2352056 Z M31.6114221,12.2352056 L74.4079039,12.2352056 C78.7072523,12.2413305 82.2828975,13.6092155 85.3032613,16.4144005 C88.2746296,19.1889613 89.7281605,22.4933223 89.7740937,26.5255206 L90.3865365,26.5204165 L89.7740937,26.5142917 C89.7281605,30.4638044 88.2776918,33.7314162 85.3012198,36.548851 L85.3032613,36.5468094 C82.2808561,39.3540361 78.7021487,40.759691 74.4079039,40.7647951 L31.6124428,40.7647951 C31.2735578,40.7647951 31,41.0404137 31,41.3823849 C31,41.7233354 31.2735578,41.9999874 31.6124428,41.9999874 L74.4079039,41.9999874 C78.9726442,42.0050788 82.9096307,40.4636562 86.1361835,37.4532884 L86.1382249,37.450226 C89.3310934,34.4510871 90.9663156,30.7843386 91,26.5255206 L91,26.5142917 C90.9663156,22.1799337 89.3341556,18.4713321 86.1361835,15.5069007 C82.9065684,12.4955121 78.9675405,10.9949218 74.4079039,11.0000129 L31.6124428,11.0000129 C31.2735578,11.0000129 31,11.2766653 31,11.6176158 C31,11.9585662 31.2735578,12.2352056 31.6124428,12.2352056 L31.6114221,12.2352056 Z" id="Shape" fill="#9B0033"></path>
                            <path d="M27.6249574,11.508618 C30.0828503,12.9362893 32.0231845,14.8777598 33.451074,17.2964747 C34.8779407,19.7537753 35.5908626,22.4882837 35.6307535,25.4603989 C35.5908626,28.4731306 34.8779407,31.207639 33.451074,33.6243231 C32.0242073,36.0430379 30.0818275,37.9845084 27.6249574,39.4527963 C25.2069553,40.8784368 22.5127855,41.591257 19.4606205,41.6318736 C16.4882373,41.591257 13.7531538,40.8784368 11.3351517,39.4517809 C8.87828162,37.9845084 6.93692465,36.0430379 5.54892601,33.6253385 C4.08216843,31.207639 3.36924651,28.5117163 3.32935561,25.4603989 C3.36924651,22.4882837 4.08216843,19.7537753 5.54892601,17.2964747 C6.93590181,14.8777598 8.87828162,12.9362893 11.3351517,11.508618 C13.7541766,10.0839929 16.4882373,9.32954072 19.4616434,9.2899396 C22.4739175,9.32954072 25.2079782,10.0819621 27.6259802,11.508618 L27.6249574,11.508618 Z M19.4616434,6 C15.8550972,6.04061654 12.5656325,6.91184128 9.63211729,8.65530619 C6.73849301,10.3997865 4.44016365,12.7372683 2.65632458,15.6311966 C0.911353563,18.5647261 0.0398908967,21.8526349 0,25.4603989 C0.0409137402,29.0671475 0.911353563,32.3570871 2.65530174,35.2896011 C4.43914081,38.2231306 6.73747017,40.5616278 9.63109444,42.3446938 C12.5646096,44.0505884 15.8540743,44.9207978 19.4606205,45 C23.1070576,44.9614143 26.3954995,44.0881587 29.3290147,42.3446938 C32.261507,40.5616278 34.5997272,38.2221152 36.3446983,35.2896011 C38.0487555,32.3570871 38.9601091,29.0671475 39,25.4603989 C38.9590863,21.8536503 38.0876236,18.5647261 36.3446983,15.6311966 C34.5997272,12.7372683 32.261507,10.3997865 29.3279918,8.65530619 C26.3965223,6.91184128 23.1070576,6.03960112 19.4606205,6 L19.4616434,6 Z" id="Shape" fill="#9B0033"></path>
                            <path d="M44,20.2405314 L45.3435811,20.2405314 L46.7667365,24.2123824 L48.2296791,20.2415593 L49.533473,20.2415593 L47.3206959,25.8981577 L46.2525642,25.8981577 L44,20.2415593 M59.4567939,21.5644817 L60.6810136,21.5644817 L60.6810136,25.8580691 L59.4567939,25.8580691 L59.4567939,21.5644817 Z M59.4159865,20 L60.6810136,20 L60.6810136,21.083419 L59.4159865,21.083419 L59.4159865,20 Z M55.6209055,21.5644817 L56.8083986,21.5644817 L56.8083986,22.4073693 C56.9267398,22.1267494 57.1246553,21.8862181 57.3215507,21.7258638 C57.5194662,21.525421 57.7959358,21.4452439 58.1519797,21.4843046 L58.1519797,22.7691943 L58.1121926,22.7691943 C57.6765744,22.7691943 57.3613378,22.88946 57.1634223,23.1299913 C56.9267398,23.3705227 56.8083986,23.7714082 56.8083986,24.2935874 L56.8083986,25.8580691 L55.6219257,25.8580691 L55.6219257,21.5644817 L55.6209055,21.5644817 Z M53.0520845,23.3705227 C53.0122973,23.0899027 52.9337432,22.88946 52.7745947,22.6890172 C52.6174865,22.527635 52.419571,22.4474579 52.1828885,22.4474579 C51.9064189,22.4474579 51.7085034,22.527635 51.550375,22.6890172 C51.3922466,22.88946 51.2739054,23.0899027 51.2341182,23.3705227 L53.0520845,23.3705227 Z M52.2614426,25.9793627 C51.9859932,25.9793627 51.667696,25.8981577 51.3922466,25.777892 C51.1147568,25.6977149 50.8780743,25.5373606 50.6801588,25.3358899 C50.4832635,25.1364751 50.3639021,24.9350043 50.2455608,24.6543844 C50.1272196,24.3737645 50.0476453,24.0530561 50.0476453,23.7313197 C50.0476453,23.4116391 50.0874324,23.1299913 50.2057737,22.8483435 C50.3241149,22.5677236 50.4434763,22.3271922 50.6413919,22.1267494 C50.8382872,21.9263066 51.0362027,21.7659524 51.3126723,21.6446588 C51.5901621,21.525421 51.8666317,21.4843046 52.1828885,21.4843046 C52.5379122,21.4843046 52.815402,21.5644817 53.0908514,21.6857753 C53.3683412,21.805013 53.5662568,21.9663952 53.7243851,22.2069265 C53.8825135,22.4083972 53.9998346,22.6489286 54.119196,22.9295485 C54.1987703,23.2101684 54.2385574,23.5308769 54.2385574,23.8114968 L54.1977501,23.9728789 L54.1977501,24.1332332 L51.2739054,24.1332332 C51.3126723,24.4138531 51.4310136,24.6142959 51.6289291,24.7746501 C51.8268446,24.8949158 52.0247601,24.9750929 52.3012297,24.9750929 C52.4991453,24.9750929 52.6562534,24.9350043 52.8551891,24.8548272 C52.9735304,24.8147387 53.1306386,24.694473 53.3285541,24.5341188 L54.0018749,25.1364751 C53.8039594,25.417095 53.5662568,25.6175378 53.2897871,25.7378034 C53.0122973,25.8981577 52.6572736,25.9793627 52.2614426,25.9793627 L52.2614426,25.9793627 Z M64.3975405,25.9382462 C63.9629425,25.9382462 63.5671115,25.8580691 63.1325135,25.6977149 C62.7377027,25.5774492 62.3816588,25.3369178 62.0256149,25.0151815 L62.7764696,24.1722938 C63.0141723,24.3737645 63.2508547,24.5341188 63.5283445,24.6554124 C63.803794,24.7746501 64.0812838,24.8548272 64.3975405,24.8548272 C64.67299,24.8548272 64.8719257,24.8147387 64.9902669,24.694473 C65.1086081,24.6142959 65.1871622,24.4930023 65.1871622,24.3347039 L65.1871622,24.0931446 L64.9902669,23.9317625 L64.6740101,23.7714082 L64.0812838,23.5709654 L63.330429,23.3705227 L62.7377027,23.0498142 L62.3816588,22.5666957 C62.3020845,22.3672808 62.2633175,22.1658101 62.2633175,21.8862181 L62.2633175,21.8451016 L62.3816588,21.1635961 C62.5,20.9631533 62.6183412,20.7627105 62.8162568,20.6424448 C62.9743851,20.4820906 63.1723007,20.3618249 63.4089831,20.2806199 C63.6466858,20.2004428 63.9221352,20.1613821 64.199625,20.1613821 C64.595456,20.1613821 64.9514999,20.2405314 65.3065237,20.3618249 C65.6615474,20.4820906 65.9788243,20.6424448 66.2552939,20.8829762 L65.6227804,21.806041 L64.8719257,21.4051554 C64.6352432,21.2838618 64.3975405,21.2448011 64.1608581,21.2448011 C63.9221352,21.2448011 63.765027,21.2838618 63.6466858,21.4051554 C63.5283445,21.4843046 63.4487703,21.6055982 63.4487703,21.7258638 L63.4487703,21.7659524 L63.5283445,22.0064838 L63.6864729,22.166838 L64.0812838,22.3271922 L64.6740101,22.4875465 L65.4258851,22.7691943 C65.6238006,22.8483435 65.8206959,22.9696371 65.9788243,23.0899027 L66.2950811,23.5319048 C66.3746553,23.7313197 66.4134223,23.9327904 66.4134223,24.1733217 L66.4134223,24.2123824 C66.4134223,24.4930023 66.3746553,24.7345616 66.2552939,24.9350043 C66.1767398,25.1364751 66.0583986,25.3358899 65.8604831,25.4962442 C65.6625676,25.6175378 65.4656722,25.7378034 65.1871622,25.8179805 C64.9514999,25.8981577 64.6740101,25.9382462 64.3975405,25.9382462 M67.9549189,21.5644817 L69.1801588,21.5644817 L69.1801588,25.8580691 L67.9559391,25.8580691 L67.9559391,21.5644817 L67.9549189,21.5644817 Z M67.9151318,20 L69.1801588,20 L69.1801588,21.083419 L67.9151318,21.083419 L67.9151318,20 Z M76.8101081,21.5644817 L77.996581,21.5644817 L77.996581,22.166838 L78.2332635,21.9263066 L78.5087129,21.6857753 L78.8259899,21.525421 L79.2218209,21.4843046 C79.696206,21.4843046 80.0512297,21.6456867 80.2889324,21.9263066 C80.565402,22.2069265 80.6847634,22.5677236 80.6847634,23.0899027 L80.6847634,25.8580691 L79.4595235,25.8580691 L79.4595235,23.4506998 C79.4595235,23.1700799 79.4187162,22.9696371 79.3013952,22.8092828 C79.1820337,22.6890172 78.9851384,22.60884 78.7474358,22.60884 C78.5097331,22.60884 78.3128378,22.6890172 78.1944965,22.8092828 C78.0751351,22.9696371 77.996581,23.1700799 77.996581,23.4506998 L77.996581,25.8580691 L76.8101081,25.8580691 L76.8101081,21.5644817 L76.8101081,21.5644817 Z M73.015027,24.4940302 L73.449625,24.4138531 C73.5679663,24.3737645 73.6475405,24.333676 73.7658818,24.2123824 C73.845456,24.1332332 73.9240101,24.0119396 73.9637973,23.8927018 C74.0035844,23.7724362 74.0433716,23.6511426 74.0433716,23.4918162 L73.9637973,23.0899027 C73.9240101,22.9696371 73.845456,22.8483435 73.7658818,22.7691943 L73.449625,22.5677236 L73.015027,22.4875465 L72.619196,22.5677236 L72.3029392,22.7691943 C72.184598,22.8483435 72.1060439,22.9696371 72.0662568,23.0899027 L71.9877027,23.4907883 C71.9877027,23.8125247 72.1060439,24.0530561 72.3039594,24.2123824 C72.5008547,24.4138531 72.7385574,24.4940302 73.015027,24.4940302 Z M72.8966858,27.1429588 L71.9081284,27.0216652 C71.5520845,26.9805487 71.2756149,26.8602831 70.9991453,26.7009567 L71.4337432,25.777892 L72.1060439,26.0986005 L72.8568986,26.1787776 C73.2517095,26.1787776 73.5679663,26.0986005 73.7658818,25.8981577 C73.9637973,25.6977149 74.0433716,25.417095 74.0433716,25.0151815 L74.0433716,24.8157666 C73.8852432,25.0151815 73.6863075,25.2166522 73.4894122,25.3369178 C73.2914966,25.4571835 73.015027,25.4972721 72.6589831,25.4972721 C72.4212805,25.4972721 72.184598,25.4571835 71.9479155,25.3770064 C71.7510202,25.2968293 71.5520845,25.1765636 71.3551891,24.9761208 C71.1970608,24.8157666 71.0787195,24.6142959 70.9593581,24.3737645 C70.8410169,24.0931446 70.8012297,23.8125247 70.8012297,23.4907883 C70.8012297,23.1700799 70.8410169,22.88946 70.9593581,22.6479007 C71.0787195,22.3672808 71.1970608,22.166838 71.3551891,22.0064838 C71.5520845,21.806041 71.7510202,21.6857753 71.9877027,21.6055982 L72.6589831,21.4843046 C73.015027,21.4843046 73.2914966,21.5655096 73.4894122,21.6857753 C73.6873277,21.806041 73.8852432,21.9263066 74.0433716,22.1277773 L74.0433716,21.5655096 L75.2288243,21.5655096 L75.2288243,24.8959437 C75.2288243,25.6565984 75.0706959,26.2188661 74.714652,26.5806911 C74.5167365,26.7811339 74.2402669,26.9414881 73.9637973,27.0216652 L72.8966858,27.1429588 L72.8966858,27.1429588 Z M47.0829933,32.9599114 C46.6483953,32.9599114 46.2525642,32.8797343 45.8179663,32.7193801 C45.4221352,32.5980865 45.0671115,32.3575552 44.7110676,32.0368467 L45.4619224,31.193959 C45.699625,31.3954297 45.9363075,31.555784 46.2127771,31.6760497 C46.4902669,31.7963153 46.7667365,31.8764924 47.0829933,31.8764924 C47.3594629,31.8764924 47.5573784,31.835376 47.6757196,31.7161382 C47.7950811,31.6359611 47.8736352,31.5156954 47.8736352,31.3553412 L47.8736352,31.1137819 L47.6757196,30.9534277 L47.3594629,30.7930735 L46.7667365,30.5926307 L46.0158818,30.3921879 L45.4221352,30.0714794 L45.0671115,29.5883609 C44.9875372,29.388946 44.9477501,29.1874753 44.9477501,28.9068554 L44.9477501,28.8667668 L45.0671115,28.1852613 C45.1854527,27.9848185 45.303794,27.7843757 45.5017095,27.6641101 C45.6598379,27.5027279 45.8567332,27.3824622 46.0934157,27.3022851 C46.3321385,27.222108 46.6086081,27.1820195 46.8850778,27.1820195 C47.2798886,27.1820195 47.6359325,27.2621966 47.9919764,27.3824622 C48.3480203,27.5027279 48.6652972,27.6641101 48.9407467,27.9046414 L48.3082332,28.8277062 L47.5573784,28.4268206 C47.3206959,28.305527 47.0819731,28.2654384 46.8452906,28.2654384 C46.6086081,28.2654384 46.4504798,28.305527 46.3321385,28.4257927 C46.2127771,28.5059698 46.134223,28.6262355 46.134223,28.7465011 L46.134223,28.7876176 L46.2127771,29.0271211 L46.3719257,29.1885032 L46.7667365,29.3488574 L47.3594629,29.5092117 L48.1103176,29.7898316 C48.3082332,29.8700087 48.5061487,29.9913023 48.664277,30.11054 L48.9805338,30.5525421 C49.0590879,30.7529849 49.098875,30.9534277 49.098875,31.194987 L49.098875,31.2340476 C49.098875,31.5156954 49.0590879,31.7562268 48.9407467,31.9566696 C48.8611724,32.1571124 48.7428311,32.3575552 48.5459358,32.5179094 C48.3480203,32.639203 48.1501048,32.7594686 47.872615,32.8396458 C47.6359325,32.9198229 47.3594629,32.9599114 47.0829933,32.9599114 M58.2703209,33 C57.9540642,33 57.6765744,32.9198229 57.401125,32.7995572 C57.1236352,32.6782636 56.8869527,32.5179094 56.6890372,32.3174666 C56.4911216,32.1170238 56.3727804,31.916581 56.2544392,31.6359611 C56.1360979,31.3553412 56.0565237,31.0336048 56.0565237,30.7529849 C56.0565237,30.4322764 56.1360979,30.1516565 56.2544392,29.8700087 C56.3727804,29.5893888 56.4911216,29.3488574 56.6890372,29.1484146 C56.8869527,28.9479719 57.1236352,28.7886455 57.401125,28.666324 C57.6765744,28.5470863 57.9540642,28.5059698 58.3090879,28.5059698 C58.7049189,28.5059698 59.0211757,28.5861469 59.2986655,28.7074405 C59.5741149,28.8277062 59.7720304,28.9880604 59.969946,29.2275638 L59.2588784,30.0303629 C59.1405371,29.8700087 58.9824087,29.749743 58.8242804,29.6695659 C58.7049189,29.5893888 58.5080236,29.5493002 58.2703209,29.5493002 L57.8755101,29.6294773 L57.5592533,29.9100973 L57.3215507,30.2719222 L57.2429966,30.7128963 L57.2429966,30.7540128 C57.2429966,30.9133391 57.2817635,31.0747213 57.3215507,31.193959 C57.3613378,31.3553412 57.4398919,31.474579 57.5592533,31.5948446 C57.6378074,31.7161382 57.7561487,31.7963153 57.8755101,31.8364039 C57.9938513,31.8764924 58.1519797,31.916581 58.348875,31.916581 C58.5478107,31.916581 58.7059391,31.8754645 58.8640675,31.7963153 L59.2986655,31.474579 L60.0097331,32.1972009 C59.8118176,32.3976437 59.5751351,32.5980865 59.2986655,32.7594686 C59.0211757,32.9198229 58.7049189,33 58.2703209,33 Z M53.5264696,30.3921879 C53.4866825,30.11054 53.4081284,29.9100973 53.2510202,29.7096545 C53.0918716,29.5493002 52.8939561,29.4691231 52.6562534,29.4691231 C52.380804,29.4691231 52.1818683,29.5493002 52.0237399,29.7096545 C51.8656116,29.9100973 51.7482905,30.11054 51.7074832,30.3921879 L53.5264696,30.3921879 Z M52.7358277,33 C52.4593581,33 52.1441215,32.9198229 51.8656116,32.7995572 C51.5901621,32.7193801 51.3524595,32.5590259 51.154544,32.3575552 C50.9566284,32.1581403 50.8382872,31.9566696 50.719946,31.6760497 C50.6016047,31.3954297 50.5220304,31.0747213 50.5220304,30.7529849 C50.5220304,30.4322764 50.5618176,30.1516565 50.6801588,29.8700087 C50.7995202,29.5893888 50.9178615,29.3488574 51.115777,29.1484146 C51.3126723,28.9479719 51.5105878,28.7886455 51.7870575,28.666324 C52.0635271,28.5470863 52.3399967,28.5059698 52.6562534,28.5059698 C53.0133175,28.5059698 53.288767,28.5861469 53.5662568,28.7074405 C53.8427264,28.8277062 54.0406419,28.9880604 54.1987703,29.2275638 C54.3568986,29.4290346 54.4752399,29.6695659 54.5946013,29.9501858 C54.6731554,30.2308057 54.7129425,30.5525421 54.7129425,30.833162 L54.6721352,30.9935162 L54.6721352,31.1538705 L51.7482905,31.1538705 C51.7870575,31.4355183 51.9064189,31.6359611 52.1033142,31.7963153 C52.3012297,31.916581 52.4991453,31.9967581 52.7756149,31.9967581 C52.9735304,31.9967581 53.1316588,31.9556417 53.3285541,31.8754645 C53.4479155,31.8364039 53.6060439,31.7161382 53.8039594,31.555784 L54.4752399,32.1571124 C54.2783445,32.4377323 54.0406419,32.6381751 53.7641723,32.7584407 C53.4877027,32.9198229 53.1316588,33 52.7358277,33 L52.7358277,33 Z M62.8948109,32.9599114 C62.4602129,32.9599114 62.104169,32.7995572 61.8287195,32.5179094 C61.5899967,32.2372895 61.4716555,31.8764924 61.4716555,31.3553412 L61.4716555,28.5861469 L62.6581284,28.5861469 L62.6581284,30.9935162 C62.6581284,31.2741362 62.7377027,31.474579 62.8550237,31.6359611 C62.9743851,31.7562268 63.1712805,31.8364039 63.4089831,31.8364039 C63.6058785,31.8364039 63.803794,31.7562268 63.9619224,31.6359611 C64.0812838,31.474579 64.1608581,31.2741362 64.1608581,30.9935162 L64.1608581,28.5871748 L65.3452906,28.5871748 L65.3452906,32.8807622 L64.1618782,32.8807622 L64.1618782,32.2784059 L63.9231554,32.5189373 L63.647706,32.7604966 L63.3314492,32.9208508 L62.895831,32.9609394 M78.7862027,31.9176089 C78.9453513,31.9176089 79.1024595,31.8764924 79.2218209,31.8364039 L79.5380776,31.5948446 C79.6166317,31.474579 79.696206,31.3553412 79.734973,31.2350755 L79.8145473,30.7529849 L79.8145473,30.7128963 L79.734973,30.2318336 L79.5370575,29.8700087 L79.2208007,29.6294773 C79.1024595,29.5893888 78.9453513,29.5493002 78.7862027,29.5493002 L78.3903717,29.6294773 L78.0741149,29.8700087 L77.8374324,30.2318336 C77.7976453,30.3520993 77.7588784,30.5124535 77.7588784,30.7128963 L77.7588784,30.7540128 L77.8374324,31.2340476 C77.8782398,31.3553412 77.9567939,31.474579 78.0741149,31.5948446 L78.3903717,31.8364039 L78.7862027,31.916581 L78.7862027,31.9176089 Z M78.5097331,32.9599114 C78.2342837,32.9599114 77.996581,32.918795 77.7588784,32.7995572 C77.5609628,32.7193801 77.3630473,32.5980865 77.1651318,32.3986716 C76.9682365,32.1972009 76.848875,31.9566696 76.7305338,31.6760497 C76.6121926,31.3954297 76.5724054,31.1137819 76.5724054,30.7529849 L76.5724054,30.7128963 C76.5724054,30.3520993 76.6121926,30.0313908 76.7305338,29.749743 C76.8498952,29.4691231 76.9682365,29.2686803 77.1651318,29.0682375 C77.3242804,28.8677947 77.5221959,28.7465011 77.7588784,28.6673519 C77.996581,28.5470863 78.2332635,28.5059698 78.5097331,28.5059698 C78.8259899,28.5059698 79.1024595,28.5861469 79.3013952,28.7074405 C79.4982905,28.8277062 79.696206,28.9469439 79.8145473,29.1484146 L79.8145473,27.0206373 L81,27.0206373 L81,32.8797343 L79.8145473,32.8797343 L79.8145473,32.277378 C79.696206,32.4778208 79.4982905,32.6381751 79.3013952,32.7594686 C79.1024595,32.8797343 78.8259899,32.9599114 78.5097331,32.9599114 Z M74.0035844,30.3921879 C73.9637973,30.11054 73.8852432,29.9100973 73.728135,29.7096545 C73.5689864,29.5493002 73.3710709,29.4691231 73.1333683,29.4691231 C72.8579188,29.4691231 72.6589831,29.5493002 72.5008547,29.7096545 C72.3427264,29.9100973 72.2254053,30.11054 72.184598,30.3921879 L74.0035844,30.3921879 Z M73.2129425,33 C72.9354527,33 72.6202162,32.9198229 72.3427264,32.7995572 C72.0672769,32.7193801 71.8285541,32.5590259 71.6326789,32.3575552 C71.4347634,32.1581403 71.3164222,31.9566696 71.1970608,31.6760497 C71.0787195,31.3954297 70.9991453,31.0747213 70.9991453,30.7529849 C70.9991453,30.4322764 71.0389324,30.1516565 71.1572736,29.8700087 C71.2766351,29.5893888 71.3949763,29.3488574 71.5918716,29.1484146 C71.7897871,28.9479719 71.9877027,28.7886455 72.2641723,28.666324 C72.5416621,28.5470863 72.8171115,28.5059698 73.1343884,28.5059698 C73.4894122,28.5059698 73.766902,28.5861469 74.0433716,28.7074405 C74.3198412,28.8277062 74.5177567,28.9880604 74.6758851,29.2275638 C74.8329933,29.4290346 74.9523547,29.6695659 75.0706959,29.9501858 C75.1502702,30.2308057 75.1900574,30.5525421 75.1900574,30.833162 L75.14925,30.9935162 L75.14925,31.1538705 L72.2254053,31.1538705 C72.2641723,31.4355183 72.3835337,31.6359611 72.580429,31.7963153 C72.7783445,31.916581 72.9762601,31.9967581 73.2527297,31.9967581 C73.4506452,31.9967581 73.6087736,31.9556417 73.8056689,31.8754645 C73.9240101,31.8364039 74.0821385,31.7161382 74.280054,31.555784 L74.9533749,32.1571124 C74.7544392,32.4377323 74.5177567,32.6381751 74.2412871,32.7584407 C73.9637973,32.9198229 73.6087736,33 73.2129425,33 L73.2129425,33 Z M67.2438513,28.5861469 L68.4303243,28.5861469 L68.4303243,29.4290346 C68.5486655,29.1484146 68.746581,28.9078833 68.9434763,28.7465011 C69.1413919,28.5470863 69.4178615,28.4658812 69.7739054,28.5059698 L69.7739054,29.7908595 L69.7341182,29.7908595 C69.2995202,29.7908595 68.9832635,29.9100973 68.785348,30.1516565 C68.5486655,30.3921879 68.4303243,30.7930735 68.4303243,31.3142247 L68.4303243,32.8797343 L67.2428311,32.8797343 L67.2428311,28.5861469 L67.2438513,28.5861469 Z" id="Shape" fill="#9B0033"></path>
                            <path d="M82,10 L83.6073324,10 L83.6073324,10.3919598 L83.0477569,10.3919598 L83.0477569,12 L82.5981669,12 L82.5981669,10.3919598 L82,10.3919598 L82,10 Z M86,10 L86,12 L85.5523396,12 L85.5523396,10.7065327 L85.065123,11.5688442 L84.9917993,11.5688442 L84.5055475,10.7065327 L84.5055475,12 L84.0569223,12 L84.0569223,10.001005 L84.5412446,10.001005 L85.065123,10.8633166 L85.5513748,10.001005 L86,10.001005 L86,10 Z" id="Shape" fill="#9B0033"></path>
                            <path d="M31.5099404,15.2520445 L30.0361359,15.2520445 L30.0361359,16.7498642 L31.5109688,16.7498642 L31.5109688,15.2520445 L31.5099404,15.2520445 Z M30.0351075,11.4711598 L31.5099404,11.4711598 L31.5099404,12.9275978 L30.0361359,12.9275978 L30.0361359,11.4711598 L30.0351075,11.4711598 Z M33.8610338,7.6095302 L32.3471189,7.6095302 L32.3471189,6.15107363 L33.8620623,6.15107363 L33.8620623,7.6095302 L33.8610338,7.6095302 Z M36.8106996,4.57654613 L39.7202548,4.57654613 L39.7202548,3 L36.8106996,3 L36.8106996,7.6095302 L33.8620623,7.6095302 L33.8620623,9.10634064 L31.3505268,9.10634064 L31.3505268,10.1307928 L30.0361359,10.1307928 L30.0361359,11.4711598 L28.442,11.4711598 L28.442,13.7956065 L26.9291135,13.7956065 L26.9291135,15.2530538 L25.9314929,15.2530538 L25.9314929,16.7498642 L24.8166262,16.7498642 C22.5848359,20.0200367 20.8312863,23.2498368 19.5559775,26.5200093 C16.6865328,22.5402901 14.0155837,20.1774895 11.5451872,19.3892164 C10.8684507,19.1924005 10.3902099,19.3498532 10.1104648,19.9403011 C9.83277659,20.5317582 10.0713828,21.2796587 10.9085613,22.1476675 C13.4180398,24.8657461 15.7300512,28.7263664 17.8425385,33.6508021 C18.1613657,34.4380658 18.8782126,34.8720702 20.0331899,34.9901598 C21.110003,35.0688862 21.8278784,34.6752543 22.1467056,33.8082548 C23.7007311,29.7508186 25.4943911,26.2838301 27.5667679,23.3295724 L27.5667679,21.6339274 L28.7618556,21.6339274 L28.7618556,20.1774895 L30.0371644,20.1774895 L30.0371644,18.4041274 L31.5119973,18.4041274 L31.5119973,16.7498642 L33.0269407,16.7498642 L33.0269407,15.2530538 L34.2220285,15.2530538 L34.2220285,13.4403285 L35.5364193,13.4403285 L35.5364193,12.2190604 L36.8117281,12.2190604 L36.8117281,9.10734996 L38.286561,9.10734996 L38.286561,7.6095302 L40,7.6095302 L40,6.11271976 L38.286561,6.11271976 L38.286561,7.6095302 L36.8127565,7.6095302 L36.8127565,9.10634064 L35.3368952,9.10634064 L35.3368952,10.5647972 L33.8620623,10.5647972 L33.8620623,9.10634064 L35.3358667,9.10634064 L35.3358667,4.57654613 L36.8106996,4.57654613 L36.8106996,4.57654613 Z" id="Shape" fill="#000000"></path>
                            <polygon id="Path" fill="#A10045" points="36 5 38 5 38 7 36 7"></polygon>
                            <polygon id="Path" fill="#FFFFFF" points="30 12 32 12 32 14 30 14"></polygon>
                            <polygon id="Path" fill="#9B0033" points="41 3 43 3 43 5 41 5"></polygon>
                            <polyline id="Path" fill="#000000" points="42 4 42 2 40 2 40 4"></polyline>
                            <polygon id="Path" fill="#9B0033" points="41 0 43 0 43 2 41 2"></polygon>
                        </g>
                    </g>
                </g>
            </g>
        </g>
    </g>
</svg>