<?xml version="1.0" encoding="UTF-8"?>
<svg width="49px" height="27px" viewBox="0 0 49 27" version="1.1" xmlns="http://www.w3.org/2000/svg" xmlns:xlink="http://www.w3.org/1999/xlink">
    <!-- Generator: Sketch 64 (93537) - https://sketch.com -->
    <title>Group 18</title>
    <desc>Created with Sketch.</desc>
    <g id="Hi-fidelity-Design" stroke="none" stroke-width="1" fill="none" fill-rule="evenodd">
        <g id="cart-8a-Payment-desktop-01" transform="translate(-416.000000, -737.000000)">
            <g id="Group-8" transform="translate(183.000000, 705.000000)">
                <g id="Group-22" transform="translate(233.000000, 32.000000)">
                    <g id="Group-18">
                        <rect id="Rectangle" stroke="#979797" stroke-width="0.5" fill="#FFFFFF" x="0.25" y="0.25" width="47.7196796" height="26.5" rx="4"></rect>
                        <path d="M16.580829,8.30769231 L13.7327928,16.1046426 L13.4283891,14.5205745 C12.7396483,12.6285857 11.400491,10.9022292 9.39996731,9.74502575 L12.0027285,19.7307692 L15.0818049,19.7307692 L19.6610003,8.30769231 L16.580829,8.30769231" id="Fill-1" fill="#0058A0"></path>
                        <polygon id="Fill-3" fill="#0058A0" points="18.8716901 19.7307692 20.6930066 8.30769231 23.6075515 8.30769231 21.784042 19.7307692"></polygon>
                        <path d="M31.5006538,8.77442319 C30.9817747,8.54966108 30.159886,8.30769231 29.1449029,8.30769231 C26.5415952,8.30769231 24.7126452,9.80897412 24.6968016,11.9565814 C24.6799677,13.5514245 26.0039017,14.4364925 27.0010607,14.9666729 C28.025946,15.508683 28.3705451,15.8560426 28.3665842,16.3410556 C28.3566819,17.0787915 27.5456857,17.4164723 26.7901422,17.4164723 C25.739511,17.4164723 25.1790423,17.2519336 24.3175445,16.8368227 L23.9749258,16.6626052 L23.6075515,19.1371392 C24.2224827,19.4500855 25.3572832,19.7135626 26.5406049,19.7307692 C29.3013588,19.7307692 31.0976313,18.2445433 31.118426,15.9485285 C31.131299,14.68814 30.4282376,13.7310191 28.9072483,12.9416632 C27.991288,12.4297648 27.4219073,12.0899331 27.4318096,11.5705068 C27.4327998,11.1113038 27.9081089,10.6198384 28.9409161,10.6198384 C29.8014237,10.6015563 30.4183353,10.8166396 30.9084978,11.044628 L31.144172,11.1726026 L31.5006538,8.77442319" id="Fill-5" fill="#0058A0"></path>
                        <path d="M35.9257377,15.6760214 C36.1644664,15.0204168 37.0656136,12.4813379 37.0656136,12.4813379 C37.0462572,12.5124514 37.2957394,11.817955 37.4441383,11.3901452 L37.6344761,12.3779969 C37.6344761,12.3779969 38.1839823,15.1048676 38.2968945,15.6760214 L35.9257377,15.6760214 Z M39.4464485,8.30769231 L37.2408963,8.30769231 C36.5558955,8.30769231 36.0440267,8.51326324 35.7407768,9.2566522 L31.5006538,19.7307692 L34.5030437,19.7307692 C34.5030437,19.7307692 34.9934054,18.3239973 35.1020162,18.0139741 C35.43215,18.0139741 38.3431347,18.0195301 38.759297,18.0195301 C38.8485514,18.41956 39.1098625,19.7307692 39.1098625,19.7307692 L41.7616868,19.7307692 L39.4464485,8.30769231 L39.4464485,8.30769231 Z" id="Fill-7" fill="#0058A0"></path>
                        <polygon id="Clip-10" points="7.03203661 8.33473469 13.3270338 8.33473469 13.3270338 14.499551 7.03203661 14.499551"></polygon>
                        <path d="M11.2425782,8.33473469 L7.05509951,8.33473469 L7.03164572,8.52979592 C10.285859,9.46653061 12.4338353,11.7764082 13.3270338,14.499551 L12.4181994,9.29130612 C12.2618408,8.57057143 11.8054692,8.36008163 11.2425782,8.33473469" id="Fill-9" fill="#F9A51A"></path>
                    </g>
                </g>
            </g>
        </g>
    </g>
</svg>