<?xml version="1.0" encoding="utf-8"?>
<!-- Generator: Adobe Illustrator 24.1.0, SVG Export Plug-In . SVG Version: 6.00 Build 0)  -->
<svg version="1.1" id="Layer_1" xmlns="http://www.w3.org/2000/svg" xmlns:xlink="http://www.w3.org/1999/xlink" x="0px" y="0px"
	 viewBox="0 0 24 24" style="enable-background:new 0 0 24 24;" xml:space="preserve">
<style type="text/css">
	.st0{fill-rule:evenodd;clip-rule:evenodd;}
	.st1{fill-rule:evenodd;clip-rule:evenodd;fill:none;}
</style>
<path class="st0" d="M16,13.9c0.1,0.1,0.1,0.2,0,0.3c0,0,0,0,0,0c-0.1,0.1-0.2,0.1-0.3,0c0,0,0,0,0,0c-0.7-0.6-1.6-1-2.6-1.1
	c-1.7-0.3-3.4,0.1-4.8,1.1c-0.1,0.1-0.2,0.1-0.3,0S8,13.9,8,13.9c1.5-1.1,3.3-1.6,5.1-1.2C14.2,12.8,15.1,13.3,16,13.9 M18.3,11
	c0.1,0.1,0.1,0.2,0,0.3c-0.1,0.1-0.2,0.1-0.3,0l0,0c-1.2-1-2.7-1.6-4.2-1.9C11.1,8.9,8.2,9.6,6,11.3c-0.1,0.1-0.2,0.1-0.3,0
	c-0.1-0.1-0.1-0.2,0-0.3C8,9.1,11,8.4,13.9,9C15.5,9.3,17,10,18.3,11 M20.7,8.4c-0.1,0.1-0.2,0.1-0.3,0c0,0,0,0,0,0
	c-1.7-1.4-3.7-2.3-5.9-2.7C10.6,5,6.7,6,3.6,8.5c-0.1,0.1-0.2,0.1-0.3,0c0,0,0,0,0,0c-0.1-0.1-0.1-0.2,0-0.3c0,0,0,0,0,0
	c3.1-2.6,7.2-3.6,11.2-2.9c2.2,0.4,4.3,1.4,6.1,2.8C20.8,8.1,20.8,8.3,20.7,8.4 M12,18.6c-0.5,0-1-0.4-1-1c0-0.5,0.4-1,1-1
	c0.5,0,1,0.4,1,1C13,18.2,12.5,18.6,12,18.6 M12,16.2c-0.8,0-1.4,0.6-1.4,1.4c0,0.8,0.7,1.4,1.4,1.4c0.7,0,1.3-0.6,1.4-1.4
	C13.4,16.9,12.8,16.2,12,16.2"/>
<rect class="st1" width="24" height="24"/>
</svg>
