<svg width="24" height="24" viewBox="0 0 24 24" fill="none" xmlns="http://www.w3.org/2000/svg">
<mask id="path-1-inside-1" fill="white">
<path d="M7.92549 11.2574C8.44104 11.7591 8.75699 12.2267 8.92849 12.7335C9.0822 13.1876 9.10892 13.5212 9.10883 14.3544V18.5536C9.10883 18.8442 8.8732 19.0798 8.58254 19.0798H4.80366C4.46743 19.0798 4.21742 18.7689 4.28966 18.4405L4.69781 16.5863C4.80008 16.1807 4.73928 15.7955 4.57266 15.4468C4.50808 15.3117 4.44673 15.2194 4.40608 15.1699L2.50311 12.7219C2.42488 12.6292 2.32668 12.4774 2.23406 12.2671C2.00169 11.7395 1.92329 11.1003 2.08619 10.3507C2.28296 9.58841 3.05832 6.58384 3.43329 5.13239C3.52671 4.69668 3.78717 4.38246 4.14334 4.19308C4.40239 4.05534 4.65139 4.00611 4.85792 4H5.33945C5.65514 4 5.89981 4.276 5.86195 4.58941C5.84318 4.74472 5.81032 5.01849 5.76807 5.37359C5.69765 5.96541 5.62722 6.5643 5.56151 7.13306C5.55076 7.22618 5.55076 7.22618 5.54002 7.31942C5.48648 7.78491 5.43949 8.2012 5.40015 8.55947L7.92549 11.2574ZM5.26545 9.9556C5.25937 10.2478 5.32008 10.4952 5.42426 10.7017C5.47889 10.81 5.52756 10.8752 5.58606 10.94L6.65332 12.3186L5.821 12.963L4.79432 11.6308C4.70448 11.5393 4.59151 11.388 4.4845 11.1759C4.28476 10.7799 4.18103 10.3083 4.22085 9.77073C4.24905 9.38953 4.34663 8.48311 4.49434 7.19912C4.5051 7.10562 4.5051 7.10562 4.51588 7.01225C4.58175 6.44217 4.65231 5.84213 4.72286 5.24921C4.7299 5.19002 4.73669 5.13309 4.74319 5.07858C4.70903 5.08939 4.67253 5.10383 4.6375 5.12246C4.54169 5.1734 4.48681 5.23961 4.45749 5.37422C4.07752 6.84685 3.30215 9.85145 3.11012 10.5937C3.00084 11.0978 3.05164 11.512 3.19735 11.8428C3.24692 11.9553 3.29091 12.0234 3.32076 12.0594L5.22711 14.5114C5.30935 14.6109 5.41749 14.7735 5.52239 14.993C5.78742 15.5477 5.88668 16.1765 5.72213 16.8281L5.45832 18.0273H8.05625V14.3875C8.05633 13.6365 8.03568 13.3789 7.93146 13.0709C7.81744 12.734 7.59447 12.404 7.17426 11.9943L5.26545 9.9556ZM18.4587 7.31939C18.4481 7.22755 18.4481 7.22755 18.4375 7.13583C18.3718 6.56661 18.3014 5.96709 18.2309 5.37455C18.1887 5.01902 18.1558 4.74488 18.137 4.58934C18.0992 4.27595 18.3439 4 18.6595 4L19.1572 4.00025C19.3476 4.00611 19.5966 4.05534 19.8556 4.19308C20.2118 4.38246 20.4723 4.69668 20.5607 5.11145C20.6983 5.64552 20.9047 6.44576 21.169 7.46954C21.3874 8.31584 21.6381 9.28673 21.9176 10.371C22.0753 11.1003 21.9969 11.7393 21.7649 12.2667C21.6723 12.4771 21.5742 12.629 21.5092 12.7055L19.583 15.1822C19.5522 15.2194 19.4909 15.3117 19.4263 15.4468C19.2597 15.7955 19.1989 16.1807 19.3049 16.6019L19.7093 18.4405C19.7816 18.7689 19.5315 19.0798 19.1953 19.0798H15.4164C15.1258 19.0798 14.8901 18.8442 14.8901 18.5536V14.3875C14.8901 13.5212 14.9168 13.1876 15.0705 12.7335C15.242 12.2267 15.5579 11.7591 16.0564 11.2749L18.5986 8.55968C18.5592 8.20135 18.5122 7.78498 18.4587 7.31939ZM16.8076 12.0117C16.4045 12.404 16.1815 12.734 16.0675 13.0709C15.9633 13.3789 15.9427 13.6365 15.9427 14.3543V18.0273H18.5407L18.2805 16.8437C18.1123 16.1765 18.2116 15.5477 18.4766 14.993C18.5815 14.7735 18.6896 14.6109 18.762 14.5238L20.6913 12.0432C20.7079 12.0236 20.7519 11.9555 20.8014 11.8428C20.947 11.5119 20.9978 11.0977 20.8936 10.6138C20.6189 9.54989 20.3682 8.57895 20.1506 7.73577C19.8855 6.70866 19.6791 5.90828 19.5365 5.35307C19.5122 5.23961 19.4573 5.1734 19.3615 5.12246C19.3261 5.10364 19.2892 5.08909 19.2557 5.07827C19.2622 5.1332 19.2691 5.1906 19.2761 5.25029C19.3467 5.84392 19.4173 6.44457 19.4832 7.01508C19.4938 7.10705 19.4938 7.10705 19.5044 7.19915C19.652 8.48298 19.7497 9.38937 19.7781 9.77068C19.8179 10.3083 19.7142 10.7799 19.5145 11.1759C19.4075 11.388 19.2945 11.5393 19.2452 11.5843L18.178 12.963L17.3457 12.3186L18.4535 10.8935C18.4714 10.8752 18.5201 10.81 18.5747 10.7017C18.679 10.4951 18.7397 10.2476 18.7335 9.95535L16.8076 12.0117ZM11.1045 12.7832C11.1045 12.2751 11.5156 11.8636 12.0235 11.8636C12.5311 11.8636 12.942 12.2753 12.942 12.7832C12.942 13.2903 12.5306 13.7016 12.0235 13.7016C11.5161 13.7016 11.1045 13.2905 11.1045 12.7832ZM14.213 10.8895L13.5507 11.7076C13.121 11.3598 12.5885 11.1676 12.0248 11.1676C11.4597 11.1676 10.9267 11.3598 10.4978 11.7074L9.8351 10.8897C10.4499 10.3914 11.2163 10.115 12.0248 10.115C12.8319 10.115 13.5976 10.3913 14.213 10.8895ZM17.6726 7.4772L16.9582 8.25022C15.6232 7.01643 13.8786 6.31961 12.0242 6.31961C10.1691 6.31961 8.42387 7.01642 7.08945 8.24961L6.37506 7.47657C7.9021 6.06538 9.9017 5.26702 12.0242 5.26702C14.1461 5.26702 16.145 6.06542 17.6726 7.4772ZM8.77408 9.94859L8.07409 9.16249C9.15538 8.19964 10.5488 7.65741 12.0242 7.65741C13.4997 7.65741 14.8931 8.19973 15.9737 9.1626L15.2735 9.94847C14.3837 9.15562 13.2387 8.70999 12.0242 8.70999C10.8097 8.70999 9.66462 9.15559 8.77408 9.94859Z"/>
</mask>
<path d="M7.92549 11.2574C8.44104 11.7591 8.75699 12.2267 8.92849 12.7335C9.0822 13.1876 9.10892 13.5212 9.10883 14.3544V18.5536C9.10883 18.8442 8.8732 19.0798 8.58254 19.0798H4.80366C4.46743 19.0798 4.21742 18.7689 4.28966 18.4405L4.69781 16.5863C4.80008 16.1807 4.73928 15.7955 4.57266 15.4468C4.50808 15.3117 4.44673 15.2194 4.40608 15.1699L2.50311 12.7219C2.42488 12.6292 2.32668 12.4774 2.23406 12.2671C2.00169 11.7395 1.92329 11.1003 2.08619 10.3507C2.28296 9.58841 3.05832 6.58384 3.43329 5.13239C3.52671 4.69668 3.78717 4.38246 4.14334 4.19308C4.40239 4.05534 4.65139 4.00611 4.85792 4H5.33945C5.65514 4 5.89981 4.276 5.86195 4.58941C5.84318 4.74472 5.81032 5.01849 5.76807 5.37359C5.69765 5.96541 5.62722 6.5643 5.56151 7.13306C5.55076 7.22618 5.55076 7.22618 5.54002 7.31942C5.48648 7.78491 5.43949 8.2012 5.40015 8.55947L7.92549 11.2574ZM5.26545 9.9556C5.25937 10.2478 5.32008 10.4952 5.42426 10.7017C5.47889 10.81 5.52756 10.8752 5.58606 10.94L6.65332 12.3186L5.821 12.963L4.79432 11.6308C4.70448 11.5393 4.59151 11.388 4.4845 11.1759C4.28476 10.7799 4.18103 10.3083 4.22085 9.77073C4.24905 9.38953 4.34663 8.48311 4.49434 7.19912C4.5051 7.10562 4.5051 7.10562 4.51588 7.01225C4.58175 6.44217 4.65231 5.84213 4.72286 5.24921C4.7299 5.19002 4.73669 5.13309 4.74319 5.07858C4.70903 5.08939 4.67253 5.10383 4.6375 5.12246C4.54169 5.1734 4.48681 5.23961 4.45749 5.37422C4.07752 6.84685 3.30215 9.85145 3.11012 10.5937C3.00084 11.0978 3.05164 11.512 3.19735 11.8428C3.24692 11.9553 3.29091 12.0234 3.32076 12.0594L5.22711 14.5114C5.30935 14.6109 5.41749 14.7735 5.52239 14.993C5.78742 15.5477 5.88668 16.1765 5.72213 16.8281L5.45832 18.0273H8.05625V14.3875C8.05633 13.6365 8.03568 13.3789 7.93146 13.0709C7.81744 12.734 7.59447 12.404 7.17426 11.9943L5.26545 9.9556ZM18.4587 7.31939C18.4481 7.22755 18.4481 7.22755 18.4375 7.13583C18.3718 6.56661 18.3014 5.96709 18.2309 5.37455C18.1887 5.01902 18.1558 4.74488 18.137 4.58934C18.0992 4.27595 18.3439 4 18.6595 4L19.1572 4.00025C19.3476 4.00611 19.5966 4.05534 19.8556 4.19308C20.2118 4.38246 20.4723 4.69668 20.5607 5.11145C20.6983 5.64552 20.9047 6.44576 21.169 7.46954C21.3874 8.31584 21.6381 9.28673 21.9176 10.371C22.0753 11.1003 21.9969 11.7393 21.7649 12.2667C21.6723 12.4771 21.5742 12.629 21.5092 12.7055L19.583 15.1822C19.5522 15.2194 19.4909 15.3117 19.4263 15.4468C19.2597 15.7955 19.1989 16.1807 19.3049 16.6019L19.7093 18.4405C19.7816 18.7689 19.5315 19.0798 19.1953 19.0798H15.4164C15.1258 19.0798 14.8901 18.8442 14.8901 18.5536V14.3875C14.8901 13.5212 14.9168 13.1876 15.0705 12.7335C15.242 12.2267 15.5579 11.7591 16.0564 11.2749L18.5986 8.55968C18.5592 8.20135 18.5122 7.78498 18.4587 7.31939ZM16.8076 12.0117C16.4045 12.404 16.1815 12.734 16.0675 13.0709C15.9633 13.3789 15.9427 13.6365 15.9427 14.3543V18.0273H18.5407L18.2805 16.8437C18.1123 16.1765 18.2116 15.5477 18.4766 14.993C18.5815 14.7735 18.6896 14.6109 18.762 14.5238L20.6913 12.0432C20.7079 12.0236 20.7519 11.9555 20.8014 11.8428C20.947 11.5119 20.9978 11.0977 20.8936 10.6138C20.6189 9.54989 20.3682 8.57895 20.1506 7.73577C19.8855 6.70866 19.6791 5.90828 19.5365 5.35307C19.5122 5.23961 19.4573 5.1734 19.3615 5.12246C19.3261 5.10364 19.2892 5.08909 19.2557 5.07827C19.2622 5.1332 19.2691 5.1906 19.2761 5.25029C19.3467 5.84392 19.4173 6.44457 19.4832 7.01508C19.4938 7.10705 19.4938 7.10705 19.5044 7.19915C19.652 8.48298 19.7497 9.38937 19.7781 9.77068C19.8179 10.3083 19.7142 10.7799 19.5145 11.1759C19.4075 11.388 19.2945 11.5393 19.2452 11.5843L18.178 12.963L17.3457 12.3186L18.4535 10.8935C18.4714 10.8752 18.5201 10.81 18.5747 10.7017C18.679 10.4951 18.7397 10.2476 18.7335 9.95535L16.8076 12.0117ZM11.1045 12.7832C11.1045 12.2751 11.5156 11.8636 12.0235 11.8636C12.5311 11.8636 12.942 12.2753 12.942 12.7832C12.942 13.2903 12.5306 13.7016 12.0235 13.7016C11.5161 13.7016 11.1045 13.2905 11.1045 12.7832ZM14.213 10.8895L13.5507 11.7076C13.121 11.3598 12.5885 11.1676 12.0248 11.1676C11.4597 11.1676 10.9267 11.3598 10.4978 11.7074L9.8351 10.8897C10.4499 10.3914 11.2163 10.115 12.0248 10.115C12.8319 10.115 13.5976 10.3913 14.213 10.8895ZM17.6726 7.4772L16.9582 8.25022C15.6232 7.01643 13.8786 6.31961 12.0242 6.31961C10.1691 6.31961 8.42387 7.01642 7.08945 8.24961L6.37506 7.47657C7.9021 6.06538 9.9017 5.26702 12.0242 5.26702C14.1461 5.26702 16.145 6.06542 17.6726 7.4772ZM8.77408 9.94859L8.07409 9.16249C9.15538 8.19964 10.5488 7.65741 12.0242 7.65741C13.4997 7.65741 14.8931 8.19973 15.9737 9.1626L15.2735 9.94847C14.3837 9.15562 13.2387 8.70999 12.0242 8.70999C10.8097 8.70999 9.66462 9.15559 8.77408 9.94859Z" fill="#202E39" stroke="#009FE3" stroke-width="2" mask="url(#path-1-inside-1)"/>
</svg>
